<svg width="130" height="40" viewBox="0 0 130 40" fill="none" xmlns="http://www.w3.org/2000/svg">
<g clip-path="url(#clip0_8412_3508)">
<path d="M28.7055 0H11.1741C5.00284 0 0 5.01793 0 11.2079V28.7921C0 34.9821 5.00284 40 11.1741 40H28.7055C34.8768 40 39.8796 34.9821 39.8796 28.7921V11.2079C39.8796 5.01793 34.8768 0 28.7055 0Z" fill="url(#paint0_radial_8412_3508)"/>
<path style="mix-blend-mode:screen" d="M28.7056 0.946289H11.1743C5.52391 0.946289 0.943359 5.54066 0.943359 11.2081V28.7924C0.943359 34.4598 5.52391 39.0542 11.1743 39.0542H28.7056C34.356 39.0542 38.9366 34.4598 38.9366 28.7924V11.2081C38.9366 5.54066 34.356 0.946289 28.7056 0.946289Z" fill="url(#paint1_radial_8412_3508)"/>
<path style="mix-blend-mode:multiply" d="M28.7056 0.946289H11.1743C5.52391 0.946289 0.943359 5.54066 0.943359 11.2081V28.7924C0.943359 34.4598 5.52391 39.0542 11.1743 39.0542H28.7056C34.356 39.0542 38.9366 34.4598 38.9366 28.7924V11.2081C38.9366 5.54066 34.356 0.946289 28.7056 0.946289Z" fill="url(#paint2_radial_8412_3508)"/>
<path d="M27.7815 13.4535C28.5459 13.4535 29.0939 13.0533 29.4594 12.437L28.5785 12.4204C28.363 12.6366 28.0965 12.7539 27.781 12.7539C27.1665 12.7539 26.668 12.2875 26.668 11.7042C26.668 11.121 27.1665 10.6371 27.781 10.6371C28.0965 10.6371 28.3464 10.7539 28.5785 10.9706L29.4594 10.9535C29.0939 10.3367 28.5459 9.93701 27.7815 9.93701C26.7515 9.93701 25.9375 10.7208 25.9375 11.7042C25.9375 12.6877 26.7515 13.454 27.7815 13.454V13.4535Z" fill="url(#paint3_radial_8412_3508)"/>
<path d="M31.4869 11.6205V12.2038H32.4339C32.2344 12.5372 31.8854 12.7539 31.4704 12.7539C30.8554 12.7539 30.357 12.2875 30.357 11.7042C30.357 11.121 30.8554 10.6371 31.4704 10.6371C31.7859 10.6371 32.0514 10.7539 32.2679 10.9706H33.1484C32.7994 10.3542 32.2509 9.93701 31.4704 9.93701C30.4569 9.93701 29.626 10.7208 29.626 11.7042C29.626 12.6877 30.4569 13.454 31.4704 13.454C32.4839 13.454 33.3144 12.6706 33.3144 11.7042V11.6205H31.4864H31.4869Z" fill="url(#paint4_radial_8412_3508)"/>
<path d="M29.6239 20.8348C29.6239 17.7199 27.8823 14.9541 24.4867 14.9541C22.3966 14.9541 20.9455 15.973 20.0456 17.2833C19.2911 15.886 17.9847 14.9541 15.9818 14.9541C13.979 14.9541 12.8476 15.7985 12.0925 16.8755V15.3032H9.90289C9.07664 15.3032 8.40697 15.9749 8.40697 16.8036V22.8541H8.0594C7.23315 22.8541 6.56348 23.5258 6.56348 24.3541V26.5508H8.4065V30.0625H10.5961C11.4224 30.0625 12.0921 29.3908 12.0921 28.5621V21.5911C12.0921 19.9024 12.9919 18.5344 14.7047 18.5344C16.4176 18.5344 17.1717 19.7572 17.1717 21.5911V30.063H19.3618C20.1881 30.063 20.8577 29.3913 20.8577 28.5626V21.5916C20.8577 19.9029 21.7576 18.5349 23.4699 18.5349C25.1823 18.5349 25.9369 19.7577 25.9369 21.5916V30.0635H28.127C28.9533 30.0635 29.6229 29.3918 29.6229 28.5631V26.5527H29.9748C30.801 26.5527 31.4707 25.881 31.4707 25.0527V22.856H29.6229V20.8352L29.6239 20.8348Z" fill="url(#paint5_radial_8412_3508)"/>
<path style="mix-blend-mode:screen" opacity="0.75" d="M20.0456 17.2828C19.2911 15.8855 17.9847 14.9536 15.9818 14.9536C13.979 14.9536 12.8476 15.798 12.0925 16.875V15.3032H9.90289C9.07664 15.3032 8.40697 15.9749 8.40697 16.8036V22.8541H8.0594C7.23315 22.8541 6.56348 23.5258 6.56348 24.3541V26.5508H8.4065V30.046C9.4959 30.0436 10.5561 29.9197 11.5776 29.6926C11.8926 29.4173 12.0921 29.0134 12.0921 28.5616V21.5902C12.0921 19.9015 12.9919 18.5335 14.7047 18.5335C16.4176 18.5335 17.1717 19.7562 17.1717 21.5902V27.1246C18.6341 26.0314 19.8848 24.671 20.8582 23.1176V21.5902C20.8582 20.1687 21.4986 18.9776 22.722 18.6356C22.9738 17.5529 23.1111 16.4261 23.1111 15.2663C23.1111 15.2161 23.1078 15.1665 23.1073 15.1163C21.7401 15.4536 20.7318 16.2819 20.0452 17.2814L20.0456 17.2828Z" fill="url(#paint6_radial_8412_3508)"/>
<path style="mix-blend-mode:screen" opacity="0.75" d="M12.0931 16.8751V15.3032H9.90345C9.07721 15.3032 8.40753 15.9749 8.40753 16.8036V22.8541H8.05996C7.33511 22.8541 6.73099 23.3711 6.59375 24.058C7.17005 24.1748 7.76615 24.2368 8.37688 24.2368C9.7035 24.2368 10.9613 23.9449 12.0936 23.425V21.5916C12.0936 19.9029 12.9934 18.5349 14.7063 18.5349C15.4561 18.5349 16.022 18.7695 16.4219 19.1872C16.9964 18.0028 17.3194 16.6736 17.3194 15.2677C17.3194 15.2157 17.3166 15.1641 17.3156 15.1121C16.9105 15.0094 16.4677 14.9541 15.9834 14.9541C14.0385 14.9541 12.8491 15.7985 12.094 16.8755L12.0931 16.8751Z" fill="url(#paint7_radial_8412_3508)"/>
<path d="M8.40697 16.8037V22.8541H8.0594C7.23315 22.8541 6.56348 23.5258 6.56348 24.3541V26.5508H6.70967V24.5007C6.70967 23.672 7.37935 23.0008 8.2056 23.0008H8.55317V16.9503C8.55317 16.1216 9.22284 15.4499 10.0491 15.4499H12.0925V15.3032H9.90289C9.07665 15.3032 8.40697 15.9749 8.40697 16.8037Z" fill="#620A98"/>
<path d="M20.0801 17.2355C20.1183 17.2993 20.1565 17.3632 20.1918 17.4294C21.0917 16.1191 22.5428 15.1003 24.6329 15.1003C26.0675 15.1003 27.206 15.5955 28.0436 16.4006C27.1942 15.5089 26.0067 14.9536 24.4867 14.9536C22.4221 14.9536 20.9823 15.9479 20.0801 17.235V17.2355Z" fill="#620A98"/>
<path d="M31.4716 22.855H29.7705V23.0016H31.4716V22.855Z" fill="#620A98"/>
<path d="M12.2393 16.6768V17.0217C12.9943 15.9446 14.1841 15.1003 16.1286 15.1003C17.4943 15.1003 18.5351 15.534 19.2991 16.2521C18.5238 15.447 17.4377 14.9536 15.9824 14.9536C14.1587 14.9536 12.999 15.6958 12.2393 16.6764V16.6768Z" fill="#620A98"/>
<path d="M25.9379 21.5916V30.0635H26.0841V21.7383C26.0841 20.6432 25.8125 19.7691 25.2314 19.2402C25.712 19.7776 25.9379 20.5931 25.9379 21.5916Z" fill="#620A98"/>
<path d="M8.55342 26.6978H8.40723V30.0629H8.55342V26.6978Z" fill="#620A98"/>
<path d="M17.1723 21.5916V30.0635H17.3185V21.7383C17.3185 20.6432 17.0468 19.7691 16.4658 19.2402C16.9464 19.7776 17.1723 20.5931 17.1723 21.5916Z" fill="#620A98"/>
<path d="M27.7821 12.7539C27.4793 12.7539 27.2058 12.6399 27.0049 12.4554C27.2086 12.6669 27.4996 12.8017 27.8269 12.8017C28.1542 12.8017 28.4088 12.6848 28.6244 12.4682L29.4294 12.4833C29.4393 12.4677 29.4501 12.453 29.46 12.437L28.5796 12.4204C28.364 12.6366 28.0976 12.7539 27.7821 12.7539Z" fill="#620A98"/>
<path d="M25.9833 11.7515C25.9833 10.7686 26.7973 9.98479 27.8272 9.98479C28.3861 9.98479 28.8285 10.2 29.1694 10.5562C28.8228 10.1712 28.3663 9.93701 27.7824 9.93701C26.7525 9.93701 25.9385 10.7208 25.9385 11.7038C25.9385 12.1484 26.1125 12.5533 26.3988 12.8617C26.1384 12.5599 25.9837 12.173 25.9837 11.7515H25.9833Z" fill="#620A98"/>
<path d="M31.4873 11.6206V12.2038H31.5326V11.6684H33.3152V11.6206H31.4873Z" fill="#620A98"/>
<path d="M29.6718 11.7515C29.6718 10.7686 30.5027 9.98479 31.5162 9.98479C32.084 9.98479 32.5273 10.2071 32.8617 10.5642C32.5221 10.1783 32.0642 9.93701 31.4714 9.93701C30.4579 9.93701 29.627 10.7208 29.627 11.7038C29.627 12.1475 29.8033 12.5514 30.091 12.8598C29.8297 12.558 29.6718 12.1721 29.6718 11.7515Z" fill="#620A98"/>
<path d="M31.4706 12.7538C31.1678 12.7538 30.8938 12.6398 30.6934 12.4553C30.8971 12.6668 31.1885 12.8016 31.5158 12.8016C31.9308 12.8016 32.2798 12.5849 32.4793 12.2515H32.4015C32.1978 12.557 31.8648 12.7538 31.4706 12.7538Z" fill="#620A98"/>
<path d="M61.0835 21.8228C60.2667 21.8228 59.689 21.9628 58.9717 22.4424C58.4336 22.8019 58.0351 23.2016 57.7163 23.8014C57.4574 23.002 56.9193 22.5025 56.4614 22.2225C55.8634 21.8828 55.1862 21.8228 54.7079 21.8228C54.0104 21.8228 53.3931 21.9429 52.7357 22.3625C52.2174 22.6822 51.859 23.0621 51.56 23.6217V22.1827H48.2725V32.3348H51.8189V26.579C51.8189 25.9395 52.0179 25.2002 52.3966 24.8004C52.6956 24.4807 53.054 24.3208 53.5124 24.3208C53.7911 24.3208 54.1104 24.3809 54.3891 24.6803C54.7678 25.0999 54.8075 25.8392 54.8075 26.439V32.3348H58.3539V26.579C58.3539 25.6997 58.593 25.1401 58.9316 24.7806C59.2504 24.441 59.6291 24.3213 60.0672 24.3213C60.4459 24.3213 60.7449 24.4414 60.9836 24.7806C61.1628 25.0407 61.342 25.5199 61.342 26.5194V32.3348H64.8884V26.1595C64.8884 25.0805 64.7889 23.7811 63.8127 22.8019C63.0157 21.9826 61.9796 21.8228 61.0831 21.8228H61.0835Z" fill="#E5E5E5"/>
<path d="M76.3053 23.1617C75.0499 21.9825 73.3168 21.8027 72.1411 21.8027C70.7664 21.8027 69.1525 22.0426 67.8971 23.3018C67.1996 24.0014 66.3828 25.3003 66.3828 27.3986C66.3828 29.497 67.1199 30.716 67.8971 31.4354C69.0728 32.5347 70.6668 32.7145 71.9619 32.7145C73.2569 32.7145 75.0103 32.5149 76.3053 31.2755C77.0226 30.5958 77.8394 29.3371 77.8394 27.2189C77.8394 25.1007 77.0424 23.8613 76.3053 23.1622V23.1617ZM73.4762 29.7165C73.2371 29.9965 72.7985 30.356 72.0812 30.356C71.5634 30.356 71.0852 30.1961 70.7263 29.7165C70.2481 29.0968 70.1085 28.0576 70.1085 27.2387C70.1085 26.8991 70.1481 25.56 70.7263 24.8008C71.0847 24.341 71.5035 24.1414 72.101 24.1414C72.6386 24.1414 73.1173 24.3013 73.4955 24.8008C73.6747 25.0207 74.1133 25.7 74.1133 27.2387C74.1133 28.0183 73.9935 29.0973 73.4757 29.7165H73.4762Z" fill="#E5E5E5"/>
<path d="M85.9485 21.8428C85.2911 21.8428 84.5337 21.9426 83.8168 22.3224C83.4381 22.522 83 22.8219 82.6015 23.3016V22.1824H79.1348V32.3345H82.7609V26.9387C82.7609 26.2391 82.8604 25.4401 83.3787 24.9004C83.7772 24.461 84.2752 24.3607 84.6341 24.3607C85.0524 24.3607 85.3514 24.5007 85.5707 24.7405C86.0093 25.2003 86.0291 25.9794 86.0291 26.679V32.3345H89.6553V26.0995C89.6553 24.7405 89.5355 23.6015 88.6192 22.742C87.7226 21.9028 86.5469 21.8428 85.9494 21.8428H85.9485Z" fill="#E5E5E5"/>
<path d="M96.7674 21.8027C95.4724 21.8027 93.7986 22.0426 92.5234 23.3018C91.6665 24.1414 90.9492 25.5401 90.9492 27.3788C90.9492 29.0973 91.5467 30.3962 92.3636 31.2358C93.7185 32.6147 95.4917 32.7145 96.6872 32.7145C97.8827 32.7145 99.1777 32.6147 100.333 31.8351C100.971 31.4156 101.728 30.6762 102.087 29.3972H98.5C98.4203 29.7169 98.2411 29.9568 97.9223 30.1564C97.5436 30.3962 97.1654 30.4359 96.8065 30.4359C96.4278 30.4359 95.8303 30.3759 95.3719 29.9766C94.8739 29.5367 94.6546 28.7378 94.6744 28.0382H102.265V27.8182C102.265 26.3594 102.126 24.5609 100.851 23.2417C99.5555 21.903 97.6828 21.8027 96.766 21.8027H96.7674ZM94.6753 26.1995C94.6952 25.6002 94.9541 24.9006 95.3328 24.5406C95.7709 24.121 96.309 24.061 96.6679 24.061C97.0466 24.061 97.6243 24.121 98.0426 24.6205C98.3416 24.98 98.5406 25.6598 98.5406 26.199H94.6753V26.1995Z" fill="#E5E5E5"/>
<path d="M108.103 28.5178L106.111 22.1826H102.166L106.31 32.0546L106.21 32.4747C106.151 32.7145 105.971 33.154 105.772 33.354C105.593 33.5338 105.294 33.7135 104.756 33.7135C104.457 33.7135 104.058 33.6336 103.739 33.5537V35.9117C104.437 36.0716 105.055 36.1317 105.771 36.1317C106.708 36.1317 107.863 36.0318 108.74 35.1322C109.438 34.4127 109.736 33.3337 110.015 32.5343L113.562 22.1821H110.015L108.103 28.5174L108.103 28.5178Z" fill="#E5E5E5"/>
<path d="M61.0835 7.35693C60.2667 7.35693 59.689 7.49695 58.9717 7.9766C58.4336 8.3361 58.0351 8.7358 57.7163 9.3356C57.4574 8.53619 56.9193 8.03667 56.4614 7.75664C55.8634 7.41701 55.1862 7.35693 54.7079 7.35693C54.0104 7.35693 53.3931 7.47661 52.7357 7.89666C52.2174 8.21642 51.859 8.59626 51.56 9.15585V7.71691H48.2725V17.869H51.8189V12.1132C51.8189 11.4737 52.0179 10.7343 52.3966 10.3346C52.6956 10.0149 53.054 9.85498 53.5124 9.85498C53.7911 9.85498 54.1104 9.91506 54.3891 10.2145C54.7678 10.6341 54.8075 11.3734 54.8075 11.9732V17.8685H58.3539V12.1127C58.3539 11.2334 58.593 10.6738 58.9316 10.3143C59.2504 9.97466 59.6291 9.85451 60.0672 9.85451C60.4459 9.85451 60.7449 9.97466 60.9836 10.3143C61.1628 10.574 61.342 11.0536 61.342 12.0531V17.8685H64.8884V11.6932C64.8884 10.6142 64.7889 9.31479 63.8127 8.3361C63.0157 7.51682 61.9796 7.35693 61.0831 7.35693H61.0835Z" fill="#E5E5E5"/>
<path d="M76.3053 8.69592C75.0499 7.51666 73.3168 7.33691 72.1411 7.33691C70.7664 7.33691 69.1525 7.57674 67.8971 8.83546C67.1996 9.53506 66.3828 10.834 66.3828 12.9323C66.3828 15.0307 67.1199 16.2497 67.8971 16.9691C69.0728 18.0684 70.6668 18.2482 71.9619 18.2482C73.2569 18.2482 75.0103 18.0486 76.3053 16.8093C77.0226 16.13 77.8394 14.8708 77.8394 12.7526C77.8394 10.6344 77.0424 9.39505 76.3053 8.69592ZM73.4762 15.2506C73.2371 15.5302 72.7985 15.8902 72.0812 15.8902C71.5634 15.8902 71.0852 15.7303 70.7263 15.2506C70.2481 14.631 70.1085 13.5917 70.1085 12.7725C70.1085 12.4328 70.1481 11.0937 70.7263 10.3345C71.0847 9.8747 71.5035 9.67508 72.101 9.67508C72.6386 9.67508 73.1173 9.83496 73.4955 10.3345C73.6747 10.5544 74.1133 11.2337 74.1133 12.7725C74.1133 13.552 73.9935 14.631 73.4757 15.2506H73.4762Z" fill="#E5E5E5"/>
<path d="M82.7609 3.87939H79.1348V17.8687H82.7609V3.87939Z" fill="#E5E5E5"/>
<path d="M88.7981 18.2485C90.651 18.2485 91.5079 17.3289 91.8861 16.8096V17.8687H95.4128V3.87939H91.7866V8.65553C91.3683 8.07608 90.5515 7.33674 88.8575 7.33674C87.4828 7.33674 86.2873 7.77618 85.3507 8.93557C84.5339 9.95494 84.0557 11.4336 84.0557 12.9525C84.0557 14.5513 84.5537 15.9699 85.4106 16.8895C86.1878 17.7286 87.2833 18.2485 88.7976 18.2485H88.7981ZM88.5392 10.3745C88.8976 9.95494 89.3164 9.77471 89.8743 9.77471C90.5317 9.77471 91.0099 10.0543 91.3485 10.5344C91.747 11.094 91.9262 11.9733 91.9262 12.7325C91.9262 13.6119 91.6871 14.7509 91.1292 15.3503C90.8104 15.6899 90.3921 15.89 89.854 15.89C89.3159 15.89 88.8778 15.6904 88.559 15.3706C88.0011 14.8309 87.7818 13.7916 87.7818 12.9123C87.7818 11.953 88.0209 10.9738 88.5387 10.374L88.5392 10.3745Z" fill="#E5E5E5"/>
<path d="M98.2614 17.0092C99.4767 18.1284 101.091 18.248 102.226 18.248C103.442 18.248 104.896 18.108 106.132 16.9491C106.73 16.3895 107.367 15.4506 107.546 13.9515H104.099C104.08 14.5111 103.84 15.1308 103.541 15.4506C103.342 15.6502 102.984 15.89 102.346 15.89C101.788 15.89 101.37 15.7102 101.011 15.1705C100.573 14.5111 100.433 13.4918 100.433 12.7127C100.433 11.9336 100.593 10.7141 101.19 10.1148C101.548 9.77519 101.947 9.65505 102.405 9.65505C102.764 9.65505 103.202 9.69525 103.561 10.0746C103.88 10.4143 104.059 11.0339 104.079 11.4932H107.466C107.347 10.2941 106.809 9.235 106.131 8.5756C105.434 7.9162 104.238 7.31641 102.266 7.31641C100.991 7.31641 99.4565 7.53636 98.2213 8.77522C97.5837 9.41475 96.707 10.6938 96.707 12.9322C96.707 15.1705 97.6436 16.4496 98.261 17.0092H98.2614Z" fill="#E5E5E5"/>
<path d="M114.16 7.33688C112.865 7.33688 111.192 7.57671 109.917 8.83543C109.06 9.67458 108.343 11.0738 108.343 12.9124C108.343 14.6309 108.94 15.9299 109.757 16.7695C111.112 18.1484 112.885 18.2482 114.081 18.2482C115.276 18.2482 116.571 18.1484 117.727 17.3688C118.364 16.9492 119.121 16.2099 119.48 14.9308H115.894C115.814 15.2506 115.635 15.4904 115.316 15.69C114.937 15.9299 114.559 15.9696 114.2 15.9696C113.821 15.9696 113.224 15.9095 112.765 15.5098C112.267 15.0704 112.048 14.271 112.068 13.5714H119.659V13.3514C119.659 11.8926 119.519 10.0942 118.244 8.77488C116.949 7.43622 115.076 7.33594 114.16 7.33594L114.16 7.33688ZM112.068 11.7337C112.088 11.1339 112.347 10.4347 112.726 10.0748C113.164 9.65518 113.702 9.59511 114.061 9.59511C114.44 9.59511 115.017 9.65518 115.436 10.1547C115.735 10.5142 115.934 11.1939 115.934 11.7337H112.068Z" fill="#E5E5E5"/>
<path d="M124.58 3.87939H120.954V17.8687H124.58V3.87939Z" fill="#E5E5E5"/>
<path d="M130 3.87939H126.374V17.8687H130V3.87939Z" fill="#E5E5E5"/>
</g>
<defs>
<radialGradient id="paint0_radial_8412_3508" cx="0" cy="0" r="1" gradientUnits="userSpaceOnUse" gradientTransform="translate(9.02741 -0.0212888) scale(44.9498 45.0855)">
<stop stop-color="white"/>
<stop offset="0.75" stop-color="#E5E5E5"/>
<stop offset="1" stop-color="#E5E5E5"/>
</radialGradient>
<radialGradient id="paint1_radial_8412_3508" cx="0" cy="0" r="1" gradientUnits="userSpaceOnUse" gradientTransform="translate(9.5435 0.92595) scale(30.6994 30.7921)">
<stop stop-color="white"/>
<stop offset="1" stop-color="white" stop-opacity="0"/>
</radialGradient>
<radialGradient id="paint2_radial_8412_3508" cx="0" cy="0" r="1" gradientUnits="userSpaceOnUse" gradientTransform="translate(31.7088 38.4222) rotate(-180) scale(30.6994 30.7921)">
<stop stop-color="#E5E5E5"/>
<stop offset="1" stop-color="#E5E5E5" stop-opacity="0"/>
</radialGradient>
<radialGradient id="paint3_radial_8412_3508" cx="0" cy="0" r="1" gradientUnits="userSpaceOnUse" gradientTransform="translate(8.39814 15.4104) scale(22.5916 22.6598)">
<stop stop-color="#CC3CFF"/>
<stop offset="0.75" stop-color="#990AE3"/>
<stop offset="1" stop-color="#620A98"/>
</radialGradient>
<radialGradient id="paint4_radial_8412_3508" cx="0" cy="0" r="1" gradientUnits="userSpaceOnUse" gradientTransform="translate(8.39822 0.0238106) scale(22.5916 22.6598)">
<stop stop-color="#CC3CFF"/>
<stop offset="0.75" stop-color="#990AE3"/>
<stop offset="1" stop-color="#620A98"/>
</radialGradient>
<radialGradient id="paint5_radial_8412_3508" cx="0" cy="0" r="1" gradientUnits="userSpaceOnUse" gradientTransform="translate(8.39801 15.4106) scale(22.5916 22.6598)">
<stop stop-color="#CC3CFF"/>
<stop offset="0.75" stop-color="#990AE3"/>
<stop offset="1" stop-color="#620A98"/>
</radialGradient>
<radialGradient id="paint6_radial_8412_3508" cx="0" cy="0" r="1" gradientUnits="userSpaceOnUse" gradientTransform="translate(17.2043 30.1629) scale(14.8551 14.8999)">
<stop stop-color="#CC3CFF"/>
<stop offset="0.75" stop-color="#CC3CFF" stop-opacity="0"/>
</radialGradient>
<radialGradient id="paint7_radial_8412_3508" cx="0" cy="0" r="1" gradientUnits="userSpaceOnUse" gradientTransform="translate(8.38857 24.3243) scale(8.81934 8.84596)">
<stop stop-color="#CC3CFF"/>
<stop offset="0.75" stop-color="#CC3CFF" stop-opacity="0"/>
</radialGradient>
<clipPath id="clip0_8412_3508">
<rect width="130" height="40" fill="white"/>
</clipPath>
</defs>
</svg>
