<svg width="64" height="64" viewBox="0 0 64 64" fill="none" xmlns="http://www.w3.org/2000/svg"><g id="Qr_Code_MFS"><path id="qr dark pixels" fill-rule="evenodd" clip-rule="evenodd" d="M20.48 1.024C20.48 0.752418 20.5879 0.49196 20.7799 0.299923C20.972 0.107885 21.2324 0 21.504 0L29.696 0C29.9676 0 30.228 0.107885 30.4201 0.299923C30.6121 0.49196 30.72 0.752418 30.72 1.024V1.536C30.72 1.80758 30.6121 2.06804 30.4201 2.26008C30.228 2.45211 29.9676 2.56 29.696 2.56H26.624C26.3524 2.56 26.092 2.66789 25.8999 2.85992C25.7079 3.05196 25.6 3.31242 25.6 3.584V4.096C25.6 4.36758 25.7079 4.62804 25.8999 4.82008C26.092 5.01211 26.3524 5.12 26.624 5.12H27.136C27.4076 5.12 27.668 5.22789 27.8601 5.41992C28.0521 5.61196 28.16 5.87242 28.16 6.144V6.656C28.16 6.92758 28.0521 7.18804 27.8601 7.38008C27.668 7.57211 27.4076 7.68 27.136 7.68H24.064C23.7924 7.68 23.532 7.57211 23.3399 7.38008C23.1479 7.18804 23.04 6.92758 23.04 6.656V3.584C23.04 3.31242 22.9321 3.05196 22.7401 2.85992C22.548 2.66789 22.2876 2.56 22.016 2.56H21.504C21.2324 2.56 20.972 2.45211 20.7799 2.26008C20.5879 2.06804 20.48 1.80758 20.48 1.536V1.024ZM35.84 1.024C35.84 0.752418 35.9479 0.49196 36.1399 0.299923C36.332 0.107885 36.5924 0 36.864 0L37.376 0C37.6476 0 37.908 0.107885 38.1001 0.299923C38.2921 0.49196 38.4 0.752418 38.4 1.024V6.656C38.4 6.92758 38.2921 7.18804 38.1001 7.38008C37.908 7.57211 37.6476 7.68 37.376 7.68H36.864C36.5924 7.68 36.332 7.78789 36.1399 7.97992C35.9479 8.17196 35.84 8.43242 35.84 8.704V9.216C35.84 9.48758 35.9479 9.74804 36.1399 9.94008C36.332 10.1321 36.5924 10.24 36.864 10.24H37.376C37.6476 10.24 37.908 10.3479 38.1001 10.5399C38.2921 10.732 38.4 10.9924 38.4 11.264V16.896C38.4 17.1676 38.2921 17.428 38.1001 17.6201C37.908 17.8121 37.6476 17.92 37.376 17.92H36.864C36.5924 17.92 36.332 17.8121 36.1399 17.6201C35.9479 17.428 35.84 17.1676 35.84 16.896V16.384C35.84 16.1124 35.7321 15.852 35.5401 15.6599C35.348 15.4679 35.0876 15.36 34.816 15.36H34.304C34.0324 15.36 33.772 15.4679 33.5799 15.6599C33.3879 15.852 33.28 16.1124 33.28 16.384V16.896C33.28 17.1676 33.1721 17.428 32.9801 17.6201C32.788 17.8121 32.5276 17.92 32.256 17.92H31.744C31.4724 17.92 31.212 17.8121 31.0199 17.6201C30.8279 17.428 30.72 17.1676 30.72 16.896V16.384C30.72 16.1124 30.6121 15.852 30.4201 15.6599C30.228 15.4679 29.9676 15.36 29.696 15.36H29.184C28.9124 15.36 28.652 15.2521 28.4599 15.0601C28.2679 14.868 28.16 14.6076 28.16 14.336V13.824C28.16 13.5524 28.2679 13.292 28.4599 13.0999C28.652 12.9079 28.9124 12.8 29.184 12.8H32.256C32.5276 12.8 32.788 12.6921 32.9801 12.5001C33.1721 12.308 33.28 12.0476 33.28 11.776V11.264C33.28 10.9924 33.1721 10.732 32.9801 10.5399C32.788 10.3479 32.5276 10.24 32.256 10.24H29.184C28.9124 10.24 28.652 10.1321 28.4599 9.94008C28.2679 9.74804 28.16 9.48758 28.16 9.216V8.704C28.16 8.43242 28.2679 8.17196 28.4599 7.97992C28.652 7.78789 28.9124 7.68 29.184 7.68H32.256C32.5276 7.68 32.788 7.57211 32.9801 7.38008C33.1721 7.18804 33.28 6.92758 33.28 6.656V3.584C33.28 3.31242 33.3879 3.05196 33.5799 2.85992C33.772 2.66789 34.0324 2.56 34.304 2.56H34.816C35.0876 2.56 35.348 2.45211 35.5401 2.26008C35.7321 2.06804 35.84 1.80758 35.84 1.536V1.024ZM38.4 8.704C38.4 8.43242 38.5079 8.17196 38.6999 7.97992C38.892 7.78789 39.1524 7.68 39.424 7.68H42.496C42.7676 7.68 43.028 7.78789 43.2201 7.97992C43.4121 8.17196 43.52 8.43242 43.52 8.704V9.216C43.52 9.48758 43.4121 9.74804 43.2201 9.94008C43.028 10.1321 42.7676 10.24 42.496 10.24H39.424C39.1524 10.24 38.892 10.1321 38.6999 9.94008C38.5079 9.74804 38.4 9.48758 38.4 9.216V8.704ZM23.04 11.264C23.04 10.9924 23.1479 10.732 23.3399 10.5399C23.532 10.3479 23.7924 10.24 24.064 10.24H24.576C24.8476 10.24 25.108 10.3479 25.3001 10.5399C25.4921 10.732 25.6 10.9924 25.6 11.264V11.776C25.6 12.0476 25.4921 12.308 25.3001 12.5001C25.108 12.6921 24.8476 12.8 24.576 12.8H24.064C23.7924 12.8 23.532 12.6921 23.3399 12.5001C23.1479 12.308 23.04 12.0476 23.04 11.776V11.264ZM20.48 16.384C20.48 16.1124 20.5879 15.852 20.7799 15.6599C20.972 15.4679 21.2324 15.36 21.504 15.36H22.016C22.2876 15.36 22.548 15.4679 22.7401 15.6599C22.9321 15.852 23.04 16.1124 23.04 16.384V19.456C23.04 19.7276 22.9321 19.988 22.7401 20.1801C22.548 20.3721 22.2876 20.48 22.016 20.48H21.504C21.2324 20.48 20.972 20.3721 20.7799 20.1801C20.5879 19.988 20.48 19.7276 20.48 19.456V16.384ZM25.6 16.384C25.6 16.1124 25.7079 15.852 25.8999 15.6599C26.092 15.4679 26.3524 15.36 26.624 15.36H27.136C27.4076 15.36 27.668 15.4679 27.8601 15.6599C28.0521 15.852 28.16 16.1124 28.16 16.384V16.896C28.16 17.1676 28.2679 17.428 28.4599 17.6201C28.652 17.8121 28.9124 17.92 29.184 17.92H29.696C29.9676 17.92 30.228 18.0279 30.4201 18.2199C30.6121 18.412 30.72 18.6724 30.72 18.944V19.456C30.72 19.7276 30.6121 19.988 30.4201 20.1801C30.228 20.3721 29.9676 20.48 29.696 20.48H29.184C28.9124 20.48 28.652 20.5879 28.4599 20.7799C28.2679 20.972 28.16 21.2324 28.16 21.504V22.016C28.16 22.2876 28.2679 22.548 28.4599 22.7401C28.652 22.9321 28.9124 23.04 29.184 23.04H29.696C29.9676 23.04 30.228 23.1479 30.4201 23.3399C30.6121 23.532 30.72 23.7924 30.72 24.064V24.576C30.72 24.8476 30.8279 25.108 31.0199 25.3001C31.212 25.4921 31.4724 25.6 31.744 25.6H32.256C32.5276 25.6 32.788 25.4921 32.9801 25.3001C33.1721 25.108 33.28 24.8476 33.28 24.576V24.064C33.28 23.7924 33.3879 23.532 33.5799 23.3399C33.772 23.1479 34.0324 23.04 34.304 23.04H37.376C37.6476 23.04 37.908 22.9321 38.1001 22.7401C38.2921 22.548 38.4 22.2876 38.4 22.016V18.944C38.4 18.6724 38.5079 18.412 38.6999 18.2199C38.892 18.0279 39.1524 17.92 39.424 17.92H39.936C40.2076 17.92 40.468 18.0279 40.6601 18.2199C40.8521 18.412 40.96 18.6724 40.96 18.944V24.576C40.96 24.8476 41.0679 25.108 41.2599 25.3001C41.452 25.4921 41.7124 25.6 41.984 25.6H42.496C42.7676 25.6 43.028 25.4921 43.2201 25.3001C43.4121 25.108 43.52 24.8476 43.52 24.576V24.064C43.52 23.7924 43.6279 23.532 43.8199 23.3399C44.012 23.1479 44.2724 23.04 44.544 23.04H45.056C45.3276 23.04 45.588 23.1479 45.7801 23.3399C45.9721 23.532 46.08 23.7924 46.08 24.064V24.576C46.08 24.8476 46.1879 25.108 46.3799 25.3001C46.572 25.4921 46.8324 25.6 47.104 25.6H47.616C47.8876 25.6 48.148 25.4921 48.3401 25.3001C48.5321 25.108 48.64 24.8476 48.64 24.576V24.064C48.64 23.7924 48.7479 23.532 48.9399 23.3399C49.132 23.1479 49.3924 23.04 49.664 23.04H60.416C60.6876 23.04 60.948 23.1479 61.1401 23.3399C61.3321 23.532 61.44 23.7924 61.44 24.064V24.576C61.44 24.8476 61.3321 25.108 61.1401 25.3001C60.948 25.4921 60.6876 25.6 60.416 25.6H57.344C57.0724 25.6 56.812 25.7079 56.6199 25.8999C56.4279 26.092 56.32 26.3524 56.32 26.624V27.136C56.32 27.4076 56.4279 27.668 56.6199 27.8601C56.812 28.0521 57.0724 28.16 57.344 28.16H60.416C60.6876 28.16 60.948 28.0521 61.1401 27.8601C61.3321 27.668 61.44 27.4076 61.44 27.136V26.624C61.44 26.3524 61.5479 26.092 61.7399 25.8999C61.932 25.7079 62.1924 25.6 62.464 25.6H62.976C63.2476 25.6 63.508 25.7079 63.7001 25.8999C63.8921 26.092 64 26.3524 64 26.624V32.256C64 32.5276 63.8921 32.788 63.7001 32.9801C63.508 33.1721 63.2476 33.28 62.976 33.28H62.464C62.1924 33.28 61.932 33.1721 61.7399 32.9801C61.5479 32.788 61.44 32.5276 61.44 32.256V31.744C61.44 31.4724 61.3321 31.212 61.1401 31.0199C60.948 30.8279 60.6876 30.72 60.416 30.72H54.784C54.5124 30.72 54.252 30.6121 54.0599 30.4201C53.8679 30.228 53.76 29.9676 53.76 29.696V29.184C53.76 28.9124 53.6521 28.652 53.4601 28.4599C53.268 28.2679 53.0076 28.16 52.736 28.16H47.104C46.8324 28.16 46.572 28.2679 46.3799 28.4599C46.1879 28.652 46.08 28.9124 46.08 29.184V29.696C46.08 29.9676 46.1879 30.228 46.3799 30.4201C46.572 30.6121 46.8324 30.72 47.104 30.72H47.616C47.8876 30.72 48.148 30.8279 48.3401 31.0199C48.5321 31.212 48.64 31.4724 48.64 31.744V32.256C48.64 32.5276 48.5321 32.788 48.3401 32.9801C48.148 33.1721 47.8876 33.28 47.616 33.28H44.544C44.2724 33.28 44.012 33.3879 43.8199 33.5799C43.6279 33.772 43.52 34.0324 43.52 34.304V34.816C43.52 35.0876 43.6279 35.348 43.8199 35.5401C44.012 35.7321 44.2724 35.84 44.544 35.84H45.056C45.3276 35.84 45.588 35.9479 45.7801 36.1399C45.9721 36.332 46.08 36.5924 46.08 36.864V37.376C46.08 37.6476 46.1879 37.908 46.3799 38.1001C46.572 38.2921 46.8324 38.4 47.104 38.4H50.176C50.4476 38.4 50.708 38.5079 50.9001 38.6999C51.0921 38.892 51.2 39.1524 51.2 39.424V39.936C51.2 40.2076 51.3079 40.468 51.4999 40.6601C51.692 40.8521 51.9524 40.96 52.224 40.96H52.736C53.0076 40.96 53.268 41.0679 53.4601 41.2599C53.6521 41.452 53.76 41.7124 53.76 41.984V52.736C53.76 53.0076 53.6521 53.268 53.4601 53.4601C53.268 53.6521 53.0076 53.76 52.736 53.76H49.664C49.3924 53.76 49.132 53.8679 48.9399 54.0599C48.7479 54.252 48.64 54.5124 48.64 54.784V55.296C48.64 55.5676 48.5321 55.828 48.3401 56.0201C48.148 56.2121 47.8876 56.32 47.616 56.32H47.104C46.8324 56.32 46.572 56.4279 46.3799 56.6199C46.1879 56.812 46.08 57.0724 46.08 57.344V57.856C46.08 58.1276 46.1879 58.388 46.3799 58.5801C46.572 58.7721 46.8324 58.88 47.104 58.88H50.176C50.4476 58.88 50.708 58.7721 50.9001 58.5801C51.0921 58.388 51.2 58.1276 51.2 57.856V57.344C51.2 57.0724 51.3079 56.812 51.4999 56.6199C51.692 56.4279 51.9524 56.32 52.224 56.32H57.856C58.1276 56.32 58.388 56.2121 58.5801 56.0201C58.7721 55.828 58.88 55.5676 58.88 55.296V49.664C58.88 49.3924 58.9879 49.132 59.1799 48.9399C59.372 48.7479 59.6324 48.64 59.904 48.64H60.416C60.6876 48.64 60.948 48.7479 61.1401 48.9399C61.3321 49.132 61.44 49.3924 61.44 49.664V52.736C61.44 53.0076 61.5479 53.268 61.7399 53.4601C61.932 53.6521 62.1924 53.76 62.464 53.76H62.976C63.2476 53.76 63.508 53.8679 63.7001 54.0599C63.8921 54.252 64 54.5124 64 54.784V62.976C64 63.2476 63.8921 63.508 63.7001 63.7001C63.508 63.8921 63.2476 64 62.976 64H62.464C62.1924 64 61.932 63.8921 61.7399 63.7001C61.5479 63.508 61.44 63.2476 61.44 62.976V62.464C61.44 62.1924 61.3321 61.932 61.1401 61.7399C60.948 61.5479 60.6876 61.44 60.416 61.44H57.344C57.0724 61.44 56.812 61.3321 56.6199 61.1401C56.4279 60.948 56.32 60.6876 56.32 60.416V59.904C56.32 59.6324 56.2121 59.372 56.0201 59.1799C55.828 58.9879 55.5676 58.88 55.296 58.88H54.784C54.5124 58.88 54.252 58.9879 54.0599 59.1799C53.8679 59.372 53.76 59.6324 53.76 59.904V60.416C53.76 60.6876 53.6521 60.948 53.4601 61.1401C53.268 61.3321 53.0076 61.44 52.736 61.44H44.544C44.2724 61.44 44.012 61.3321 43.8199 61.1401C43.6279 60.948 43.52 60.6876 43.52 60.416V59.904C43.52 59.6324 43.4121 59.372 43.2201 59.1799C43.028 58.9879 42.7676 58.88 42.496 58.88H41.984C41.7124 58.88 41.452 58.7721 41.2599 58.5801C41.0679 58.388 40.96 58.1276 40.96 57.856V57.344C40.96 57.0724 41.0679 56.812 41.2599 56.6199C41.452 56.4279 41.7124 56.32 41.984 56.32H42.496C42.7676 56.32 43.028 56.2121 43.2201 56.0201C43.4121 55.828 43.52 55.5676 43.52 55.296V54.784C43.52 54.5124 43.4121 54.252 43.2201 54.0599C43.028 53.8679 42.7676 53.76 42.496 53.76H41.984C41.7124 53.76 41.452 53.8679 41.2599 54.0599C41.0679 54.252 40.96 54.5124 40.96 54.784V55.296C40.96 55.5676 40.8521 55.828 40.6601 56.0201C40.468 56.2121 40.2076 56.32 39.936 56.32H39.424C39.1524 56.32 38.892 56.2121 38.6999 56.0201C38.5079 55.828 38.4 55.5676 38.4 55.296V54.784C38.4 54.5124 38.2921 54.252 38.1001 54.0599C37.908 53.8679 37.6476 53.76 37.376 53.76H36.864C36.5924 53.76 36.332 53.6521 36.1399 53.4601C35.9479 53.268 35.84 53.0076 35.84 52.736V52.224C35.84 51.9524 35.7321 51.692 35.5401 51.4999C35.348 51.3079 35.0876 51.2 34.816 51.2H34.304C34.0324 51.2 33.772 51.0921 33.5799 50.9001C33.3879 50.708 33.28 50.4476 33.28 50.176V41.984C33.28 41.7124 33.3879 41.452 33.5799 41.2599C33.772 41.0679 34.0324 40.96 34.304 40.96H34.816C35.0876 40.96 35.348 41.0679 35.5401 41.2599C35.7321 41.452 35.84 41.7124 35.84 41.984V47.616C35.84 47.8876 35.9479 48.148 36.1399 48.3401C36.332 48.5321 36.5924 48.64 36.864 48.64H39.936C40.2076 48.64 40.468 48.5321 40.6601 48.3401C40.8521 48.148 40.96 47.8876 40.96 47.616V44.544C40.96 44.2724 40.8521 44.012 40.6601 43.8199C40.468 43.6279 40.2076 43.52 39.936 43.52H39.424C39.1524 43.52 38.892 43.4121 38.6999 43.2201C38.5079 43.028 38.4 42.7676 38.4 42.496V41.984C38.4 41.7124 38.5079 41.452 38.6999 41.2599C38.892 41.0679 39.1524 40.96 39.424 40.96H42.496C42.7676 40.96 43.028 40.8521 43.2201 40.6601C43.4121 40.468 43.52 40.2076 43.52 39.936V39.424C43.52 39.1524 43.4121 38.892 43.2201 38.6999C43.028 38.5079 42.7676 38.4 42.496 38.4H39.424C39.1524 38.4 38.892 38.2921 38.6999 38.1001C38.5079 37.908 38.4 37.6476 38.4 37.376V34.304C38.4 34.0324 38.2921 33.772 38.1001 33.5799C37.908 33.3879 37.6476 33.28 37.376 33.28H36.864C36.5924 33.28 36.332 33.1721 36.1399 32.9801C35.9479 32.788 35.84 32.5276 35.84 32.256V29.184C35.84 28.9124 35.9479 28.652 36.1399 28.4599C36.332 28.2679 36.5924 28.16 36.864 28.16H37.376C37.6476 28.16 37.908 28.2679 38.1001 28.4599C38.2921 28.652 38.4 28.9124 38.4 29.184V29.696C38.4 29.9676 38.5079 30.228 38.6999 30.4201C38.892 30.6121 39.1524 30.72 39.424 30.72H42.496C42.7676 30.72 43.028 30.6121 43.2201 30.4201C43.4121 30.228 43.52 29.9676 43.52 29.696V29.184C43.52 28.9124 43.4121 28.652 43.2201 28.4599C43.028 28.2679 42.7676 28.16 42.496 28.16H39.424C39.1524 28.16 38.892 28.0521 38.6999 27.8601C38.5079 27.668 38.4 27.4076 38.4 27.136V26.624C38.4 26.3524 38.2921 26.092 38.1001 25.8999C37.908 25.7079 37.6476 25.6 37.376 25.6H36.864C36.5924 25.6 36.332 25.7079 36.1399 25.8999C35.9479 26.092 35.84 26.3524 35.84 26.624V27.136C35.84 27.4076 35.7321 27.668 35.5401 27.8601C35.348 28.0521 35.0876 28.16 34.816 28.16H31.744C31.4724 28.16 31.212 28.2679 31.0199 28.4599C30.8279 28.652 30.72 28.9124 30.72 29.184V29.696C30.72 29.9676 30.8279 30.228 31.0199 30.4201C31.212 30.6121 31.4724 30.72 31.744 30.72H32.256C32.5276 30.72 32.788 30.8279 32.9801 31.0199C33.1721 31.212 33.28 31.4724 33.28 31.744V32.256C33.28 32.5276 33.1721 32.788 32.9801 32.9801C32.788 33.1721 32.5276 33.28 32.256 33.28H29.184C28.9124 33.28 28.652 33.1721 28.4599 32.9801C28.2679 32.788 28.16 32.5276 28.16 32.256V31.744C28.16 31.4724 28.0521 31.212 27.8601 31.0199C27.668 30.8279 27.4076 30.72 27.136 30.72H26.624C26.3524 30.72 26.092 30.8279 25.8999 31.0199C25.7079 31.212 25.6 31.4724 25.6 31.744V32.256C25.6 32.5276 25.4921 32.788 25.3001 32.9801C25.108 33.1721 24.8476 33.28 24.576 33.28H24.064C23.7924 33.28 23.532 33.1721 23.3399 32.9801C23.1479 32.788 23.04 32.5276 23.04 32.256V29.184C23.04 28.9124 23.1479 28.652 23.3399 28.4599C23.532 28.2679 23.7924 28.16 24.064 28.16H24.576C24.8476 28.16 25.108 28.0521 25.3001 27.8601C25.4921 27.668 25.6 27.4076 25.6 27.136V26.624C25.6 26.3524 25.4921 26.092 25.3001 25.8999C25.108 25.7079 24.8476 25.6 24.576 25.6H24.064C23.7924 25.6 23.532 25.4921 23.3399 25.3001C23.1479 25.108 23.04 24.8476 23.04 24.576V21.504C23.04 21.2324 23.1479 20.972 23.3399 20.7799C23.532 20.5879 23.7924 20.48 24.064 20.48H24.576C24.8476 20.48 25.108 20.3721 25.3001 20.1801C25.4921 19.988 25.6 19.7276 25.6 19.456V16.384ZM43.52 44.544C43.52 44.2724 43.6279 44.012 43.8199 43.8199C44.012 43.6279 44.2724 43.52 44.544 43.52H50.176C50.4476 43.52 50.708 43.6279 50.9001 43.8199C51.0921 44.012 51.2 44.2724 51.2 44.544V50.176C51.2 50.4476 51.0921 50.708 50.9001 50.9001C50.708 51.0921 50.4476 51.2 50.176 51.2H44.544C44.2724 51.2 44.012 51.0921 43.8199 50.9001C43.6279 50.708 43.52 50.4476 43.52 50.176V44.544ZM40.96 16.384C40.96 16.1124 41.0679 15.852 41.2599 15.6599C41.452 15.4679 41.7124 15.36 41.984 15.36H42.496C42.7676 15.36 43.028 15.4679 43.2201 15.6599C43.4121 15.852 43.52 16.1124 43.52 16.384V16.896C43.52 17.1676 43.4121 17.428 43.2201 17.6201C43.028 17.8121 42.7676 17.92 42.496 17.92H41.984C41.7124 17.92 41.452 17.8121 41.2599 17.6201C41.0679 17.428 40.96 17.1676 40.96 16.896V16.384ZM33.28 18.944C33.28 18.6724 33.3879 18.412 33.5799 18.2199C33.772 18.0279 34.0324 17.92 34.304 17.92H34.816C35.0876 17.92 35.348 18.0279 35.5401 18.2199C35.7321 18.412 35.84 18.6724 35.84 18.944V19.456C35.84 19.7276 35.7321 19.988 35.5401 20.1801C35.348 20.3721 35.0876 20.48 34.816 20.48H34.304C34.0324 20.48 33.772 20.3721 33.5799 20.1801C33.3879 19.988 33.28 19.7276 33.28 19.456V18.944ZM0 21.504C0 21.2324 0.107885 20.972 0.299923 20.7799C0.49196 20.5879 0.752418 20.48 1.024 20.48H4.096C4.36758 20.48 4.62804 20.5879 4.82008 20.7799C5.01211 20.972 5.12 21.2324 5.12 21.504V22.016C5.12 22.2876 5.01211 22.548 4.82008 22.7401C4.62804 22.9321 4.36758 23.04 4.096 23.04H1.024C0.752418 23.04 0.49196 22.9321 0.299923 22.7401C0.107885 22.548 0 22.2876 0 22.016L0 21.504ZM7.68 21.504C7.68 21.2324 7.78789 20.972 7.97992 20.7799C8.17196 20.5879 8.43242 20.48 8.704 20.48H11.776C12.0476 20.48 12.308 20.5879 12.5001 20.7799C12.6921 20.972 12.8 21.2324 12.8 21.504V22.016C12.8 22.2876 12.6921 22.548 12.5001 22.7401C12.308 22.9321 12.0476 23.04 11.776 23.04H8.704C8.43242 23.04 8.17196 22.9321 7.97992 22.7401C7.78789 22.548 7.68 22.2876 7.68 22.016V21.504ZM15.36 21.504C15.36 21.2324 15.4679 20.972 15.6599 20.7799C15.852 20.5879 16.1124 20.48 16.384 20.48H16.896C17.1676 20.48 17.428 20.5879 17.6201 20.7799C17.8121 20.972 17.92 21.2324 17.92 21.504V22.016C17.92 22.2876 17.8121 22.548 17.6201 22.7401C17.428 22.9321 17.1676 23.04 16.896 23.04H16.384C16.1124 23.04 15.852 22.9321 15.6599 22.7401C15.4679 22.548 15.36 22.2876 15.36 22.016V21.504ZM30.72 21.504C30.72 21.2324 30.8279 20.972 31.0199 20.7799C31.212 20.5879 31.4724 20.48 31.744 20.48H32.256C32.5276 20.48 32.788 20.5879 32.9801 20.7799C33.1721 20.972 33.28 21.2324 33.28 21.504V22.016C33.28 22.2876 33.1721 22.548 32.9801 22.7401C32.788 22.9321 32.5276 23.04 32.256 23.04H31.744C31.4724 23.04 31.212 22.9321 31.0199 22.7401C30.8279 22.548 30.72 22.2876 30.72 22.016V21.504ZM46.08 21.504C46.08 21.2324 46.1879 20.972 46.3799 20.7799C46.572 20.5879 46.8324 20.48 47.104 20.48H47.616C47.8876 20.48 48.148 20.5879 48.3401 20.7799C48.5321 20.972 48.64 21.2324 48.64 21.504V22.016C48.64 22.2876 48.5321 22.548 48.3401 22.7401C48.148 22.9321 47.8876 23.04 47.616 23.04H47.104C46.8324 23.04 46.572 22.9321 46.3799 22.7401C46.1879 22.548 46.08 22.2876 46.08 22.016V21.504ZM61.44 21.504C61.44 21.2324 61.5479 20.972 61.7399 20.7799C61.932 20.5879 62.1924 20.48 62.464 20.48H62.976C63.2476 20.48 63.508 20.5879 63.7001 20.7799C63.8921 20.972 64 21.2324 64 21.504V22.016C64 22.2876 63.8921 22.548 63.7001 22.7401C63.508 22.9321 63.2476 23.04 62.976 23.04H62.464C62.1924 23.04 61.932 22.9321 61.7399 22.7401C61.5479 22.548 61.44 22.2876 61.44 22.016V21.504ZM5.12 24.064C5.12 23.7924 5.22789 23.532 5.41992 23.3399C5.61196 23.1479 5.87242 23.04 6.144 23.04H6.656C6.92758 23.04 7.18804 23.1479 7.38008 23.3399C7.57211 23.532 7.68 23.7924 7.68 24.064V24.576C7.68 24.8476 7.57211 25.108 7.38008 25.3001C7.18804 25.4921 6.92758 25.6 6.656 25.6H6.144C5.87242 25.6 5.61196 25.4921 5.41992 25.3001C5.22789 25.108 5.12 24.8476 5.12 24.576V24.064ZM12.8 24.064C12.8 23.7924 12.9079 23.532 13.0999 23.3399C13.292 23.1479 13.5524 23.04 13.824 23.04H14.336C14.6076 23.04 14.868 23.1479 15.0601 23.3399C15.2521 23.532 15.36 23.7924 15.36 24.064V24.576C15.36 24.8476 15.4679 25.108 15.6599 25.3001C15.852 25.4921 16.1124 25.6 16.384 25.6H16.896C17.1676 25.6 17.428 25.7079 17.6201 25.8999C17.8121 26.092 17.92 26.3524 17.92 26.624V27.136C17.92 27.4076 17.8121 27.668 17.6201 27.8601C17.428 28.0521 17.1676 28.16 16.896 28.16H13.824C13.5524 28.16 13.292 28.0521 13.0999 27.8601C12.9079 27.668 12.8 27.4076 12.8 27.136V24.064ZM17.92 24.064C17.92 23.7924 18.0279 23.532 18.2199 23.3399C18.412 23.1479 18.6724 23.04 18.944 23.04H19.456C19.7276 23.04 19.988 23.1479 20.1801 23.3399C20.3721 23.532 20.48 23.7924 20.48 24.064V24.576C20.48 24.8476 20.3721 25.108 20.1801 25.3001C19.988 25.4921 19.7276 25.6 19.456 25.6H18.944C18.6724 25.6 18.412 25.4921 18.2199 25.3001C18.0279 25.108 17.92 24.8476 17.92 24.576V24.064ZM0 26.624C0 26.3524 0.107885 26.092 0.299923 25.8999C0.49196 25.7079 0.752418 25.6 1.024 25.6H1.536C1.80758 25.6 2.06804 25.7079 2.26008 25.8999C2.45211 26.092 2.56 26.3524 2.56 26.624V27.136C2.56 27.4076 2.66789 27.668 2.85992 27.8601C3.05196 28.0521 3.31242 28.16 3.584 28.16H6.656C6.92758 28.16 7.18804 28.2679 7.38008 28.4599C7.57211 28.652 7.68 28.9124 7.68 29.184V32.256C7.68 32.5276 7.57211 32.788 7.38008 32.9801C7.18804 33.1721 6.92758 33.28 6.656 33.28H6.144C5.87242 33.28 5.61196 33.3879 5.41992 33.5799C5.22789 33.772 5.12 34.0324 5.12 34.304V37.376C5.12 37.6476 5.01211 37.908 4.82008 38.1001C4.62804 38.2921 4.36758 38.4 4.096 38.4H3.584C3.31242 38.4 3.05196 38.5079 2.85992 38.6999C2.66789 38.892 2.56 39.1524 2.56 39.424V42.496C2.56 42.7676 2.45211 43.028 2.26008 43.2201C2.06804 43.4121 1.80758 43.52 1.536 43.52H1.024C0.752418 43.52 0.49196 43.4121 0.299923 43.2201C0.107885 43.028 0 42.7676 0 42.496L0 34.304C0 34.0324 0.107885 33.772 0.299923 33.5799C0.49196 33.3879 0.752418 33.28 1.024 33.28H1.536C1.80758 33.28 2.06804 33.1721 2.26008 32.9801C2.45211 32.788 2.56 32.5276 2.56 32.256V31.744C2.56 31.4724 2.45211 31.212 2.26008 31.0199C2.06804 30.8279 1.80758 30.72 1.536 30.72H1.024C0.752418 30.72 0.49196 30.6121 0.299923 30.4201C0.107885 30.228 0 29.9676 0 29.696L0 26.624ZM20.48 26.624C20.48 26.3524 20.5879 26.092 20.7799 25.8999C20.972 25.7079 21.2324 25.6 21.504 25.6H22.016C22.2876 25.6 22.548 25.7079 22.7401 25.8999C22.9321 26.092 23.04 26.3524 23.04 26.624V27.136C23.04 27.4076 22.9321 27.668 22.7401 27.8601C22.548 28.0521 22.2876 28.16 22.016 28.16H21.504C21.2324 28.16 20.972 28.0521 20.7799 27.8601C20.5879 27.668 20.48 27.4076 20.48 27.136V26.624ZM10.24 31.744C10.24 31.4724 10.3479 31.212 10.5399 31.0199C10.732 30.8279 10.9924 30.72 11.264 30.72H11.776C12.0476 30.72 12.308 30.8279 12.5001 31.0199C12.6921 31.212 12.8 31.4724 12.8 31.744V32.256C12.8 32.5276 12.6921 32.788 12.5001 32.9801C12.308 33.1721 12.0476 33.28 11.776 33.28H11.264C10.9924 33.28 10.732 33.1721 10.5399 32.9801C10.3479 32.788 10.24 32.5276 10.24 32.256V31.744ZM15.36 31.744C15.36 31.4724 15.4679 31.212 15.6599 31.0199C15.852 30.8279 16.1124 30.72 16.384 30.72H19.456C19.7276 30.72 19.988 30.8279 20.1801 31.0199C20.3721 31.212 20.48 31.4724 20.48 31.744V32.256C20.48 32.5276 20.5879 32.788 20.7799 32.9801C20.972 33.1721 21.2324 33.28 21.504 33.28H22.016C22.2876 33.28 22.548 33.3879 22.7401 33.5799C22.9321 33.772 23.04 34.0324 23.04 34.304V34.816C23.04 35.0876 22.9321 35.348 22.7401 35.5401C22.548 35.7321 22.2876 35.84 22.016 35.84H21.504C21.2324 35.84 20.972 35.9479 20.7799 36.1399C20.5879 36.332 20.48 36.5924 20.48 36.864V39.936C20.48 40.2076 20.3721 40.468 20.1801 40.6601C19.988 40.8521 19.7276 40.96 19.456 40.96H18.944C18.6724 40.96 18.412 40.8521 18.2199 40.6601C18.0279 40.468 17.92 40.2076 17.92 39.936V39.424C17.92 39.1524 17.8121 38.892 17.6201 38.6999C17.428 38.5079 17.1676 38.4 16.896 38.4H13.824C13.5524 38.4 13.292 38.5079 13.0999 38.6999C12.9079 38.892 12.8 39.1524 12.8 39.424V39.936C12.8 40.2076 12.9079 40.468 13.0999 40.6601C13.292 40.8521 13.5524 40.96 13.824 40.96H16.896C17.1676 40.96 17.428 41.0679 17.6201 41.2599C17.8121 41.452 17.92 41.7124 17.92 41.984V42.496C17.92 42.7676 17.8121 43.028 17.6201 43.2201C17.428 43.4121 17.1676 43.52 16.896 43.52H6.144C5.87242 43.52 5.61196 43.4121 5.41992 43.2201C5.22789 43.028 5.12 42.7676 5.12 42.496V39.424C5.12 39.1524 5.22789 38.892 5.41992 38.6999C5.61196 38.5079 5.87242 38.4 6.144 38.4H6.656C6.92758 38.4 7.18804 38.2921 7.38008 38.1001C7.57211 37.908 7.68 37.6476 7.68 37.376V36.864C7.68 36.5924 7.78789 36.332 7.97992 36.1399C8.17196 35.9479 8.43242 35.84 8.704 35.84H11.776C12.0476 35.84 12.308 35.7321 12.5001 35.5401C12.6921 35.348 12.8 35.0876 12.8 34.816V34.304C12.8 34.0324 12.9079 33.772 13.0999 33.5799C13.292 33.3879 13.5524 33.28 13.824 33.28H14.336C14.6076 33.28 14.868 33.3879 15.0601 33.5799C15.2521 33.772 15.36 34.0324 15.36 34.304V34.816C15.36 35.0876 15.4679 35.348 15.6599 35.5401C15.852 35.7321 16.1124 35.84 16.384 35.84H16.896C17.1676 35.84 17.428 35.7321 17.6201 35.5401C17.8121 35.348 17.92 35.0876 17.92 34.816V34.304C17.92 34.0324 17.8121 33.772 17.6201 33.5799C17.428 33.3879 17.1676 33.28 16.896 33.28H16.384C16.1124 33.28 15.852 33.1721 15.6599 32.9801C15.4679 32.788 15.36 32.5276 15.36 32.256V31.744ZM33.28 34.304C33.28 34.0324 33.3879 33.772 33.5799 33.5799C33.772 33.3879 34.0324 33.28 34.304 33.28H34.816C35.0876 33.28 35.348 33.3879 35.5401 33.5799C35.7321 33.772 35.84 34.0324 35.84 34.304V34.816C35.84 35.0876 35.7321 35.348 35.5401 35.5401C35.348 35.7321 35.0876 35.84 34.816 35.84H34.304C34.0324 35.84 33.772 35.7321 33.5799 35.5401C33.3879 35.348 33.28 35.0876 33.28 34.816V34.304ZM51.2 34.304C51.2 34.0324 51.3079 33.772 51.4999 33.5799C51.692 33.3879 51.9524 33.28 52.224 33.28H52.736C53.0076 33.28 53.268 33.3879 53.4601 33.5799C53.6521 33.772 53.76 34.0324 53.76 34.304V34.816C53.76 35.0876 53.8679 35.348 54.0599 35.5401C54.252 35.7321 54.5124 35.84 54.784 35.84H57.856C58.1276 35.84 58.388 35.7321 58.5801 35.5401C58.7721 35.348 58.88 35.0876 58.88 34.816V34.304C58.88 34.0324 58.9879 33.772 59.1799 33.5799C59.372 33.3879 59.6324 33.28 59.904 33.28H60.416C60.6876 33.28 60.948 33.3879 61.1401 33.5799C61.3321 33.772 61.44 34.0324 61.44 34.304V34.816C61.44 35.0876 61.5479 35.348 61.7399 35.5401C61.932 35.7321 62.1924 35.84 62.464 35.84H62.976C63.2476 35.84 63.508 35.9479 63.7001 36.1399C63.8921 36.332 64 36.5924 64 36.864V39.936C64 40.2076 63.8921 40.468 63.7001 40.6601C63.508 40.8521 63.2476 40.96 62.976 40.96H62.464C62.1924 40.96 61.932 40.8521 61.7399 40.6601C61.5479 40.468 61.44 40.2076 61.44 39.936V39.424C61.44 39.1524 61.3321 38.892 61.1401 38.6999C60.948 38.5079 60.6876 38.4 60.416 38.4H59.904C59.6324 38.4 59.372 38.5079 59.1799 38.6999C58.9879 38.892 58.88 39.1524 58.88 39.424V39.936C58.88 40.2076 58.9879 40.468 59.1799 40.6601C59.372 40.8521 59.6324 40.96 59.904 40.96H60.416C60.6876 40.96 60.948 41.0679 61.1401 41.2599C61.3321 41.452 61.44 41.7124 61.44 41.984V45.056C61.44 45.3276 61.3321 45.588 61.1401 45.7801C60.948 45.9721 60.6876 46.08 60.416 46.08H57.344C57.0724 46.08 56.812 45.9721 56.6199 45.7801C56.4279 45.588 56.32 45.3276 56.32 45.056V41.984C56.32 41.7124 56.2121 41.452 56.0201 41.2599C55.828 41.0679 55.5676 40.96 55.296 40.96H54.784C54.5124 40.96 54.252 40.8521 54.0599 40.6601C53.8679 40.468 53.76 40.2076 53.76 39.936V39.424C53.76 39.1524 53.6521 38.892 53.4601 38.6999C53.268 38.5079 53.0076 38.4 52.736 38.4H52.224C51.9524 38.4 51.692 38.2921 51.4999 38.1001C51.3079 37.908 51.2 37.6476 51.2 37.376V34.304ZM23.04 36.864C23.04 36.5924 23.1479 36.332 23.3399 36.1399C23.532 35.9479 23.7924 35.84 24.064 35.84H27.136C27.4076 35.84 27.668 35.9479 27.8601 36.1399C28.0521 36.332 28.16 36.5924 28.16 36.864V37.376C28.16 37.6476 28.0521 37.908 27.8601 38.1001C27.668 38.2921 27.4076 38.4 27.136 38.4H24.064C23.7924 38.4 23.532 38.2921 23.3399 38.1001C23.1479 37.908 23.04 37.6476 23.04 37.376V36.864ZM30.72 36.864C30.72 36.5924 30.8279 36.332 31.0199 36.1399C31.212 35.9479 31.4724 35.84 31.744 35.84H32.256C32.5276 35.84 32.788 35.9479 32.9801 36.1399C33.1721 36.332 33.28 36.5924 33.28 36.864V37.376C33.28 37.6476 33.1721 37.908 32.9801 38.1001C32.788 38.2921 32.5276 38.4 32.256 38.4H31.744C31.4724 38.4 31.212 38.2921 31.0199 38.1001C30.8279 37.908 30.72 37.6476 30.72 37.376V36.864ZM23.04 41.984C23.04 41.7124 23.1479 41.452 23.3399 41.2599C23.532 41.0679 23.7924 40.96 24.064 40.96H29.696C29.9676 40.96 30.228 41.0679 30.4201 41.2599C30.6121 41.452 30.72 41.7124 30.72 41.984V47.616C30.72 47.8876 30.6121 48.148 30.4201 48.3401C30.228 48.5321 29.9676 48.64 29.696 48.64H26.624C26.3524 48.64 26.092 48.5321 25.8999 48.3401C25.7079 48.148 25.6 47.8876 25.6 47.616V47.104C25.6 46.8324 25.7079 46.572 25.8999 46.3799C26.092 46.1879 26.3524 46.08 26.624 46.08H27.136C27.4076 46.08 27.668 45.9721 27.8601 45.7801C28.0521 45.588 28.16 45.3276 28.16 45.056V44.544C28.16 44.2724 28.0521 44.012 27.8601 43.8199C27.668 43.6279 27.4076 43.52 27.136 43.52H24.064C23.7924 43.52 23.532 43.4121 23.3399 43.2201C23.1479 43.028 23.04 42.7676 23.04 42.496V41.984ZM20.48 44.544C20.48 44.2724 20.5879 44.012 20.7799 43.8199C20.972 43.6279 21.2324 43.52 21.504 43.52H22.016C22.2876 43.52 22.548 43.6279 22.7401 43.8199C22.9321 44.012 23.04 44.2724 23.04 44.544V45.056C23.04 45.3276 22.9321 45.588 22.7401 45.7801C22.548 45.9721 22.2876 46.08 22.016 46.08H21.504C21.2324 46.08 20.972 45.9721 20.7799 45.7801C20.5879 45.588 20.48 45.3276 20.48 45.056V44.544ZM46.08 47.104C46.08 46.8324 46.1879 46.572 46.3799 46.3799C46.572 46.1879 46.8324 46.08 47.104 46.08H47.616C47.8876 46.08 48.148 46.1879 48.3401 46.3799C48.5321 46.572 48.64 46.8324 48.64 47.104V47.616C48.64 47.8876 48.5321 48.148 48.3401 48.3401C48.148 48.5321 47.8876 48.64 47.616 48.64H47.104C46.8324 48.64 46.572 48.5321 46.3799 48.3401C46.1879 48.148 46.08 47.8876 46.08 47.616V47.104ZM61.44 47.104C61.44 46.8324 61.5479 46.572 61.7399 46.3799C61.932 46.1879 62.1924 46.08 62.464 46.08H62.976C63.2476 46.08 63.508 46.1879 63.7001 46.3799C63.8921 46.572 64 46.8324 64 47.104V47.616C64 47.8876 63.8921 48.148 63.7001 48.3401C63.508 48.5321 63.2476 48.64 62.976 48.64H62.464C62.1924 48.64 61.932 48.5321 61.7399 48.3401C61.5479 48.148 61.44 47.8876 61.44 47.616V47.104ZM20.48 52.224C20.48 51.9524 20.5879 51.692 20.7799 51.4999C20.972 51.3079 21.2324 51.2 21.504 51.2H24.576C24.8476 51.2 25.108 51.3079 25.3001 51.4999C25.4921 51.692 25.6 51.9524 25.6 52.224V55.296C25.6 55.5676 25.4921 55.828 25.3001 56.0201C25.108 56.2121 24.8476 56.32 24.576 56.32H21.504C21.2324 56.32 20.972 56.2121 20.7799 56.0201C20.5879 55.828 20.48 55.5676 20.48 55.296V52.224ZM30.72 52.224C30.72 51.9524 30.8279 51.692 31.0199 51.4999C31.212 51.3079 31.4724 51.2 31.744 51.2H32.256C32.5276 51.2 32.788 51.3079 32.9801 51.4999C33.1721 51.692 33.28 51.9524 33.28 52.224V52.736C33.28 53.0076 33.1721 53.268 32.9801 53.4601C32.788 53.6521 32.5276 53.76 32.256 53.76H31.744C31.4724 53.76 31.212 53.6521 31.0199 53.4601C30.8279 53.268 30.72 53.0076 30.72 52.736V52.224ZM28.16 54.784C28.16 54.5124 28.2679 54.252 28.4599 54.0599C28.652 53.8679 28.9124 53.76 29.184 53.76H29.696C29.9676 53.76 30.228 53.8679 30.4201 54.0599C30.6121 54.252 30.72 54.5124 30.72 54.784V55.296C30.72 55.5676 30.8279 55.828 31.0199 56.0201C31.212 56.2121 31.4724 56.32 31.744 56.32H37.376C37.6476 56.32 37.908 56.4279 38.1001 56.6199C38.2921 56.812 38.4 57.0724 38.4 57.344V60.416C38.4 60.6876 38.2921 60.948 38.1001 61.1401C37.908 61.3321 37.6476 61.44 37.376 61.44H36.864C36.5924 61.44 36.332 61.3321 36.1399 61.1401C35.9479 60.948 35.84 60.6876 35.84 60.416V59.904C35.84 59.6324 35.7321 59.372 35.5401 59.1799C35.348 58.9879 35.0876 58.88 34.816 58.88H34.304C34.0324 58.88 33.772 58.9879 33.5799 59.1799C33.3879 59.372 33.28 59.6324 33.28 59.904V60.416C33.28 60.6876 33.1721 60.948 32.9801 61.1401C32.788 61.3321 32.5276 61.44 32.256 61.44H31.744C31.4724 61.44 31.212 61.3321 31.0199 61.1401C30.8279 60.948 30.72 60.6876 30.72 60.416V59.904C30.72 59.6324 30.6121 59.372 30.4201 59.1799C30.228 58.9879 29.9676 58.88 29.696 58.88H29.184C28.9124 58.88 28.652 58.7721 28.4599 58.5801C28.2679 58.388 28.16 58.1276 28.16 57.856V54.784ZM20.48 59.904C20.48 59.6324 20.5879 59.372 20.7799 59.1799C20.972 58.9879 21.2324 58.88 21.504 58.88H27.136C27.4076 58.88 27.668 58.9879 27.8601 59.1799C28.0521 59.372 28.16 59.6324 28.16 59.904V60.416C28.16 60.6876 28.0521 60.948 27.8601 61.1401C27.668 61.3321 27.4076 61.44 27.136 61.44H24.064C23.7924 61.44 23.532 61.5479 23.3399 61.7399C23.1479 61.932 23.04 62.1924 23.04 62.464V62.976C23.04 63.2476 22.9321 63.508 22.7401 63.7001C22.548 63.8921 22.2876 64 22.016 64H21.504C21.2324 64 20.972 63.8921 20.7799 63.7001C20.5879 63.508 20.48 63.2476 20.48 62.976V59.904ZM40.96 62.464C40.96 62.1924 41.0679 61.932 41.2599 61.7399C41.452 61.5479 41.7124 61.44 41.984 61.44H42.496C42.7676 61.44 43.028 61.5479 43.2201 61.7399C43.4121 61.932 43.52 62.1924 43.52 62.464V62.976C43.52 63.2476 43.4121 63.508 43.2201 63.7001C43.028 63.8921 42.7676 64 42.496 64H41.984C41.7124 64 41.452 63.8921 41.2599 63.7001C41.0679 63.508 40.96 63.2476 40.96 62.976V62.464ZM53.76 62.464C53.76 62.1924 53.8679 61.932 54.0599 61.7399C54.252 61.5479 54.5124 61.44 54.784 61.44H55.296C55.5676 61.44 55.828 61.5479 56.0201 61.7399C56.2121 61.932 56.32 62.1924 56.32 62.464V62.976C56.32 63.2476 56.2121 63.508 56.0201 63.7001C55.828 63.8921 55.5676 64 55.296 64H54.784C54.5124 64 54.252 63.8921 54.0599 63.7001C53.8679 63.508 53.76 63.2476 53.76 62.976V62.464Z" fill="#fff"/><path id="qr squares" fill-rule="evenodd" clip-rule="evenodd" d="M2.688 0H15.232C15.9449 0 16.6286 0.283199 17.1327 0.787297C17.6368 1.29139 17.92 1.9751 17.92 2.688V15.232C17.92 15.9449 17.6368 16.6286 17.1327 17.1327C16.6286 17.6368 15.9449 17.92 15.232 17.92H2.688C1.9751 17.92 1.29139 17.6368 0.787297 17.1327C0.283199 16.6286 0 15.9449 0 15.232L0 2.688C0 1.9751 0.283199 1.29139 0.787297 0.787297C1.29139 0.283199 1.9751 0 2.688 0ZM4.48 2.56H13.44C13.9492 2.56 14.4376 2.76229 14.7976 3.12235C15.1577 3.48242 15.36 3.97078 15.36 4.48V13.44C15.36 13.9492 15.1577 14.4376 14.7976 14.7976C14.4376 15.1577 13.9492 15.36 13.44 15.36H4.48C3.97078 15.36 3.48242 15.1577 3.12235 14.7976C2.76229 14.4376 2.56 13.9492 2.56 13.44V4.48C2.56 3.97078 2.76229 3.48242 3.12235 3.12235C3.48242 2.76229 3.97078 2.56 4.48 2.56ZM6.272 5.12H11.648C11.7993 5.12 11.9491 5.1498 12.0889 5.20769C12.2286 5.26558 12.3556 5.35044 12.4626 5.45741C12.5696 5.56439 12.6544 5.69138 12.7123 5.83115C12.7702 5.97092 12.8 6.12072 12.8 6.272V11.648C12.8 11.7993 12.7702 11.9491 12.7123 12.0889C12.6544 12.2286 12.5696 12.3556 12.4626 12.4626C12.3556 12.5696 12.2286 12.6544 12.0889 12.7123C11.9491 12.7702 11.7993 12.8 11.648 12.8H6.272C6.12072 12.8 5.97092 12.7702 5.83115 12.7123C5.69138 12.6544 5.56439 12.5696 5.45741 12.4626C5.35044 12.3556 5.26558 12.2286 5.20769 12.0889C5.1498 11.9491 5.12 11.7993 5.12 11.648V6.272C5.12 6.12072 5.1498 5.97092 5.20769 5.83115C5.26558 5.69138 5.35044 5.56439 5.45741 5.45741C5.56439 5.35044 5.69138 5.26558 5.83115 5.20769C5.97092 5.1498 6.12072 5.12 6.272 5.12ZM48.768 0H61.312C62.0249 0 62.7086 0.283199 63.2127 0.787297C63.7168 1.29139 64 1.9751 64 2.688V15.232C64 15.9449 63.7168 16.6286 63.2127 17.1327C62.7086 17.6368 62.0249 17.92 61.312 17.92H48.768C48.0551 17.92 47.3714 17.6368 46.8673 17.1327C46.3632 16.6286 46.08 15.9449 46.08 15.232V2.688C46.08 1.9751 46.3632 1.29139 46.8673 0.787297C47.3714 0.283199 48.0551 0 48.768 0ZM50.56 2.56H59.52C60.0292 2.56 60.5176 2.76229 60.8776 3.12235C61.2377 3.48242 61.44 3.97078 61.44 4.48V13.44C61.44 13.9492 61.2377 14.4376 60.8776 14.7976C60.5176 15.1577 60.0292 15.36 59.52 15.36H50.56C50.0508 15.36 49.5624 15.1577 49.2024 14.7976C48.8423 14.4376 48.64 13.9492 48.64 13.44V4.48C48.64 3.97078 48.8423 3.48242 49.2024 3.12235C49.5624 2.76229 50.0508 2.56 50.56 2.56ZM52.352 5.12H57.728C58.0335 5.12 58.3265 5.24137 58.5426 5.45741C58.7586 5.67345 58.88 5.96647 58.88 6.272V11.648C58.88 11.7993 58.8502 11.9491 58.7923 12.0889C58.7344 12.2286 58.6496 12.3556 58.5426 12.4626C58.4356 12.5696 58.3086 12.6544 58.1688 12.7123C58.0291 12.7702 57.8793 12.8 57.728 12.8H52.352C52.2007 12.8 52.0509 12.7702 51.9111 12.7123C51.7714 12.6544 51.6444 12.5696 51.5374 12.4626C51.4304 12.3556 51.3456 12.2286 51.2877 12.0889C51.2298 11.9491 51.2 11.7993 51.2 11.648V6.272C51.2 5.96647 51.3214 5.67345 51.5374 5.45741C51.7535 5.24137 52.0465 5.12 52.352 5.12ZM2.688 46.08H15.232C15.9449 46.08 16.6286 46.3632 17.1327 46.8673C17.6368 47.3714 17.92 48.0551 17.92 48.768V61.312C17.92 62.0249 17.6368 62.7086 17.1327 63.2127C16.6286 63.7168 15.9449 64 15.232 64H2.688C1.9751 64 1.29139 63.7168 0.787297 63.2127C0.283199 62.7086 0 62.0249 0 61.312L0 48.768C0 48.0551 0.283199 47.3714 0.787297 46.8673C1.29139 46.3632 1.9751 46.08 2.688 46.08ZM4.48 48.64H13.44C13.9492 48.64 14.4376 48.8423 14.7976 49.2024C15.1577 49.5624 15.36 50.0508 15.36 50.56V59.52C15.36 60.0292 15.1577 60.5176 14.7976 60.8776C14.4376 61.2377 13.9492 61.44 13.44 61.44H4.48C3.97078 61.44 3.48242 61.2377 3.12235 60.8776C2.76229 60.5176 2.56 60.0292 2.56 59.52V50.56C2.56 50.0508 2.76229 49.5624 3.12235 49.2024C3.48242 48.8423 3.97078 48.64 4.48 48.64ZM6.272 51.2H11.648C11.7993 51.2 11.9491 51.2298 12.0889 51.2877C12.2286 51.3456 12.3556 51.4304 12.4626 51.5374C12.5696 51.6444 12.6544 51.7714 12.7123 51.9111C12.7702 52.0509 12.8 52.2007 12.8 52.352V57.728C12.8 57.8793 12.7702 58.0291 12.7123 58.1688C12.6544 58.3086 12.5696 58.4356 12.4626 58.5426C12.3556 58.6496 12.2286 58.7344 12.0889 58.7923C11.9491 58.8502 11.7993 58.88 11.648 58.88H6.272C5.96647 58.88 5.67345 58.7586 5.45741 58.5426C5.24137 58.3265 5.12 58.0335 5.12 57.728V52.352C5.12 52.2007 5.1498 52.0509 5.20769 51.9111C5.26558 51.7714 5.35044 51.6444 5.45741 51.5374C5.56439 51.4304 5.69138 51.3456 5.83115 51.2877C5.97092 51.2298 6.12072 51.2 6.272 51.2Z" fill="#fff"/></g></svg>