<svg width="360" height="221" viewBox="0 0 360 221" fill="none" xmlns="http://www.w3.org/2000/svg">
<g opacity="0.4" clip-path="url(#clip0_112_457)">
<path d="M41.09 179.29C41.09 179.29 -4.80996 168.18 17.06 150.54C17.06 150.54 -17.17 114.05 11.32 120.67C11.32 120.67 11.35 67.64 42.59 113.12C42.59 113.12 58.11 102.05 48.13 135.78C48.13 135.78 80.15 128.1 41.09 179.29Z" fill="#F4F5F6"/>
<path d="M42.76 183.85C42.71 183.89 42.65 183.92 42.59 183.94C42.28 184.04 41.96 183.87 41.86 183.56C36.27 165.85 33.21 149.25 31.63 138.44C29.92 126.73 29.52 119.09 29.52 119.02C29.5 118.7 29.75 118.43 30.07 118.41C30.39 118.39 30.66 118.64 30.68 118.96C30.68 119.04 31.08 126.63 32.78 138.29C34.35 149.05 37.4 165.58 42.97 183.21C43.05 183.45 42.96 183.71 42.76 183.85Z" fill="#D4D7DC"/>
<path d="M35.26 153.58C35.05 153.74 34.75 153.74 34.54 153.56L22.48 143.43C22.23 143.22 22.2 142.86 22.41 142.61C22.62 142.36 22.98 142.33 23.23 142.54L35.29 152.67C35.54 152.88 35.57 153.24 35.36 153.49C35.33 153.52 35.3 153.56 35.26 153.58Z" fill="#D4D7DC"/>
<path d="M32.4301 136.67C32.2401 136.81 31.9901 136.83 31.7801 136.7C31.5101 136.53 31.4201 136.17 31.5901 135.9L38.7501 124.27C38.9201 124 39.2801 123.91 39.5501 124.08C39.8201 124.25 39.9101 124.61 39.7401 124.88L32.5801 136.51C32.5401 136.57 32.4901 136.63 32.4301 136.67Z" fill="#D4D7DC"/>
<path d="M108.28 180.01C105.7 176.11 94.06 157.64 100.43 137.45C104.24 125.35 114.87 111.54 122.72 113.36C130.37 115.13 133.59 131.36 132.52 142.76C130.52 164.13 112.66 177.02 108.28 180.01Z" fill="#F4F5F6"/>
<path d="M103.54 192.29C103.45 192.29 103.37 192.27 103.28 192.23C102.94 192.07 102.78 191.67 102.94 191.32C104.72 187.42 106.29 183.53 107.63 179.78C116.84 153.87 118.94 130.46 118.96 130.22C118.99 129.84 119.33 129.56 119.7 129.6C120.08 129.63 120.36 129.96 120.32 130.34C120.3 130.58 118.19 154.16 108.92 180.24C107.57 184.03 105.98 187.95 104.19 191.89C104.07 192.15 103.81 192.3 103.54 192.29Z" fill="#D4D7DC"/>
<path d="M113.97 162.2C113.78 162.2 113.58 162.1 113.45 161.94C113.22 161.64 113.27 161.21 113.57 160.98L123.23 153.44C123.53 153.21 123.96 153.26 124.19 153.56C124.42 153.86 124.37 154.29 124.07 154.52L114.41 162.06C114.28 162.16 114.12 162.21 113.96 162.2H113.97Z" fill="#D4D7DC"/>
<path d="M117.6 144.3C117.37 144.3 117.15 144.17 117.03 143.95L111.78 134.71C111.59 134.38 111.71 133.96 112.04 133.78C112.37 133.59 112.79 133.71 112.97 134.04L118.22 143.28C118.41 143.61 118.29 144.03 117.96 144.21C117.85 144.28 117.72 144.3 117.6 144.3Z" fill="#D4D7DC"/>
<path d="M326.28 166.45C320.35 164.16 317.41 159.44 316.38 157.74C316 157.11 310.13 147.11 314.31 139.21C317.27 133.61 322.25 135.25 326.75 128.53C330.27 123.28 328.29 120.75 331.56 117.45C337.31 111.62 349.93 112.9 351.89 117.12C352.89 119.28 350.57 121.04 351.65 124.9C352.63 128.44 355.03 128.58 355.45 130.95C356.32 135.84 346.6 137.94 344.59 145.31C342.66 152.37 350.02 156.27 347.77 161.61C345.4 167.23 334.41 169.59 326.29 166.45H326.28Z" fill="#F4F5F6"/>
<path d="M321.62 176.64C325.85 162.16 332.16 146.57 341.64 130.94C342.95 128.78 344.28 126.68 345.63 124.64" stroke="#D4D7DC" stroke-width="2" stroke-linecap="round" stroke-linejoin="round"/>
<path d="M352.43 132.04C347.55 131.76 340.75 134.52 338.04 137.14" stroke="#D4D7DC" stroke-width="2" stroke-linecap="round" stroke-linejoin="round"/>
<path d="M323.05 144.23C322.7 147.68 321.96 154.46 326.86 161.1" stroke="#D4D7DC" stroke-width="2" stroke-linecap="round" stroke-linejoin="round"/>
<path d="M4.15002 132.85C18.45 111.05 21.59 93.41 21.8 81.3C22.01 69.09 19.29 59.52 25.8 50.75C31.27 43.38 42.41 37.7 51.93 40.16C64.79 43.48 64.01 58.9 79.7 74.95C84.36 79.72 100.01 95.72 117.83 95.25C145.98 94.5 152.93 53.36 187.35 49.68C201.49 48.17 213.47 53.71 215.59 54.72C238.25 65.55 237.65 86.1 251.52 88.17C269.07 90.79 277.29 58.94 303.89 57.45C316.77 56.73 326.69 63.53 331.9 67.1C361.25 87.21 360.04 128.17 359.85 132.31L4.15002 132.84V132.85Z" fill="url(#paint0_linear_112_457)"/>
<path d="M337.64 219.88L11.23 220C11.17 220 11.11 219.99 11.06 219.97C11.01 219.95 10.96 219.91 10.91 219.87C10.87 219.83 10.83 219.78 10.81 219.72C10.79 219.66 10.78 219.61 10.78 219.55C10.78 219.49 10.79 219.43 10.81 219.38C10.83 219.32 10.87 219.27 10.91 219.23C10.95 219.19 11 219.15 11.06 219.13C11.11 219.11 11.17 219.1 11.23 219.1L337.64 218.98C337.76 218.98 337.87 219.03 337.96 219.11C338.04 219.19 338.09 219.31 338.09 219.43C338.09 219.55 338.04 219.67 337.96 219.75C337.88 219.84 337.76 219.88 337.64 219.88Z" fill="#D4D7DC"/>
<path d="M233.46 159.43C233.46 100.89 270.88 99.76 279.26 99.76C287.64 99.76 325.06 100.89 325.06 159.43C325.06 217.97 287.48 219.1 279.26 219.1C271.04 219.1 233.46 217.97 233.46 159.43ZM299.58 159.43C299.58 142.66 298.29 119.43 279.26 119.43C260.23 119.43 258.94 143.14 258.94 159.43C258.94 175.72 260.71 199.43 279.26 199.43C297.81 199.43 299.58 176.21 299.58 159.43Z" fill="#F8F9F9"/>
<path d="M293.33 217.12C287.16 219 281.81 219.11 279.27 219.11C270.88 219.11 233.47 217.98 233.47 159.44C233.47 140.53 237.37 127.62 242.94 118.79C244.14 116.89 245.41 115.19 246.74 113.65C248.6 111.5 250.56 109.68 252.58 108.14C263.15 100.06 275 99.77 279.28 99.77C283.56 99.77 295.84 100.08 306.6 108.67M321.24 131.21C323.62 138.7 325.06 147.96 325.06 159.43C325.06 186.09 317.27 200.85 308 209.01M258.95 161.16C258.98 164.19 259.08 167.43 259.34 170.69M266.17 193.23C269.16 197.03 273.36 199.43 279.26 199.43C298.29 199.43 299.58 176.21 299.58 159.43C299.58 142.65 298.29 119.43 279.26 119.43C262.44 119.43 259.41 138.93 259 154.71" stroke="#110A14" stroke-width="2.5" stroke-linecap="round" stroke-linejoin="round"/>
<path d="M22.0901 186.84V173.33C22.0901 172.13 22.5001 170.96 23.2401 170.02L74.6901 105.01C75.7001 103.73 77.2401 102.99 78.8701 102.99H98.2201C101.17 102.99 103.55 105.38 103.55 108.32V166.8C103.55 169.75 105.94 172.13 108.88 172.13C113.64 172.13 117.51 175.99 117.51 180.76V183.54C117.51 188.3 113.65 192.17 108.88 192.17C105.93 192.17 103.55 194.56 103.55 197.5V212.62C103.55 215.57 101.16 217.95 98.2201 217.95H81.7901C78.8401 217.95 76.4601 215.56 76.4601 212.62V197.5C76.4601 194.55 74.0701 192.17 71.1301 192.17H27.4201C24.4701 192.17 22.0901 189.78 22.0901 186.84ZM76.4501 166.8V144.28C76.4501 139.21 70.0301 137 66.9101 141L49.3401 163.52C46.6101 167.02 49.1001 172.14 53.5501 172.14H71.1201C74.0701 172.14 76.4501 169.75 76.4501 166.81V166.8Z" fill="#F8F9F9"/>
<path d="M58.9701 192.17H40.9601M103.55 148.21V166.8C103.55 169.75 105.94 172.13 108.88 172.13C113.64 172.13 117.51 175.99 117.51 180.76V183.54C117.51 188.3 113.65 192.17 108.88 192.17C105.93 192.17 103.55 194.56 103.55 197.5V212.62C103.55 215.57 101.16 217.95 98.2201 217.95H81.7901C78.8401 217.95 76.4601 215.56 76.4601 212.62V197.5C76.4601 194.55 74.0701 192.17 71.1301 192.17M30.7101 192.17H27.4201C24.4701 192.17 22.0901 189.78 22.0901 186.84V173.33C22.0901 172.13 22.5001 170.96 23.2401 170.02L35.4501 154.59L55.5201 129.23L74.6901 105C75.7001 103.72 77.2401 102.98 78.8701 102.98H98.2201C101.17 102.98 103.55 105.37 103.55 108.31V129.68M76.4501 146.82V144.28C76.4501 139.21 70.0301 137 66.9101 141L61.4201 148.03L53.7901 157.8L49.3301 163.51C46.6001 167.01 49.0901 172.13 53.5401 172.13H71.1101C74.0601 172.13 76.4401 169.74 76.4401 166.8V160.41" stroke="#110A14" stroke-width="2.5" stroke-linecap="round" stroke-linejoin="round"/>
<path d="M172.2 131.68C192.386 131.68 208.75 115.316 208.75 95.1301C208.75 74.9441 192.386 58.5801 172.2 58.5801C152.014 58.5801 135.65 74.9441 135.65 95.1301C135.65 115.316 152.014 131.68 172.2 131.68Z" stroke="#F4F5F6" stroke-width="3" stroke-linecap="round" stroke-linejoin="round"/>
<path d="M182.663 134.929C214.88 126.452 238.107 108.592 234.54 95.0365C230.974 81.4808 201.965 77.363 169.748 85.8391C137.53 94.3153 114.304 112.176 117.87 125.731C121.437 139.287 150.445 143.405 182.663 134.929Z" fill="#F4F5F6"/>
<path d="M179.521 122.985C196.057 118.635 207.977 109.466 206.146 102.507C204.316 95.5472 189.426 93.4322 172.89 97.7827C156.354 102.133 144.433 111.302 146.264 118.261C148.095 125.221 162.985 127.336 179.521 122.985Z" fill="#990AE3"/>
<path d="M142.02 89.6002C144.06 81.2602 149.01 73.8102 156.01 68.7102" stroke="#110A14" stroke-width="2.5" stroke-linecap="round" stroke-linejoin="round"/>
<path d="M234.55 95.0301C238.12 108.59 214.89 126.45 182.67 134.93C150.45 143.41 121.45 139.29 117.88 125.73C115.77 117.72 123.03 108.2 135.98 100C133.53 81.9701 144.86 64.5201 162.9 59.7801C180.95 55.0301 199.4 64.6401 206.13 81.5501C221.43 82.3101 232.44 87.0301 234.55 95.0401V95.0301Z" stroke="#110A14" stroke-width="2.5" stroke-linecap="round" stroke-linejoin="round"/>
<path d="M146.27 118.26L142.02 219.31H280.79L206.15 102.5L146.27 118.26Z" fill="url(#paint1_linear_112_457)"/>
<path d="M294.87 39.7701C294.87 42.1401 293.33 44.1501 291.2 44.8401C290.67 45.0101 290.11 45.1101 289.53 45.1101H262.57C257.07 45.1101 252.35 41.7601 250.35 36.9801C249.69 35.4101 249.32 33.6801 249.32 31.8601C249.32 24.5401 255.25 18.6101 262.57 18.6101C267.97 18.6101 272.61 21.8301 274.67 26.4601C276.26 25.4101 278.18 24.8001 280.23 24.8001C285.68 24.8001 290.13 29.1001 290.37 34.4901C292.92 34.8901 294.87 37.1001 294.87 39.7601V39.7701Z" fill="#ECEDEE"/>
<path d="M123.94 21.04C123.94 23.39 122.41 25.39 120.29 26.08C119.77 26.25 119.21 26.35 118.63 26.35H72.7701C71.1201 26.35 69.5901 25.86 68.3101 25.01C66.1301 23.56 64.6901 21.08 64.6901 18.27C64.6901 13.8 68.3101 10.19 72.7701 10.19C75.0801 10.19 77.1701 11.16 78.6401 12.72C78.8801 5.65 84.6801 0 91.8101 0C97.1801 0 101.79 3.2 103.85 7.81C105.44 6.77 107.34 6.16 109.38 6.16C114.8 6.16 119.23 10.44 119.47 15.8C122.01 16.2 123.94 18.4 123.94 21.05V21.04Z" fill="#ECEDEE"/>
</g>
<defs>
<linearGradient id="paint0_linear_112_457" x1="182.03" y1="132.85" x2="182.03" y2="44.5" gradientUnits="userSpaceOnUse">
<stop stop-color="white" stop-opacity="0"/>
<stop offset="1" stop-color="#D4D7DC"/>
</linearGradient>
<linearGradient id="paint1_linear_112_457" x1="211.4" y1="219.31" x2="211.4" y2="108.66" gradientUnits="userSpaceOnUse">
<stop stop-color="white" stop-opacity="0"/>
<stop offset="1" stop-color="#990AE3"/>
</linearGradient>
<clipPath id="clip0_112_457">
<rect width="359.91" height="220.36" fill="white"/>
</clipPath>
</defs>
</svg>
