<svg width="64" height="64" viewBox="0 0 64 64" fill="none" xmlns="http://www.w3.org/2000/svg">
<g clip-path="url(#clip0_8395_3419)">
<path d="M49.9624 24.9815L46.6152 21.6343L60.819 15.1021L64.004 18.2871L57.4718 32.4909L54.1246 29.1437L55.1166 27.2023L51.9016 23.9874L49.9603 24.9794L49.9624 24.9815ZM56.612 24.4332L58.7454 20.3458L54.6728 22.4941L56.6142 24.4354L56.612 24.4332Z" fill="#E5E5E5"/>
<path d="M43.687 31.742C42.5926 33.0476 41.0992 33.8668 39.8278 34.078C37.5643 34.462 35.5078 33.1244 34.4112 32.3564C33.176 31.4924 31.5099 30.1463 31.0491 27.9554C30.7611 26.5772 30.951 24.4076 32.7152 21.886C34.3003 19.6204 36.1435 18.5602 37.8992 18.2807C40.2096 17.9031 42.0934 18.8652 43.5184 19.8615C45.4918 21.2439 46.4518 22.7586 46.7014 24.2626C46.7483 24.525 47.0256 26.3554 45.8566 28.4268L42.2363 25.8924C42.4795 25.3975 42.5328 24.8471 42.4262 24.414C42.2555 23.7826 41.7115 23.3516 41.4043 23.1362C40.839 22.7394 40.1648 22.4215 39.32 22.5708C38.1531 22.7756 37.287 23.8316 36.7707 24.5698C36.2544 25.3079 35.6358 26.4087 35.7339 27.4754C35.8214 28.4823 36.4038 28.9666 36.9179 29.3271C37.432 29.6876 37.9611 29.9543 38.6843 29.8732C39.3776 29.7964 39.8214 29.4167 40.0368 29.1842L43.6912 31.7442L43.687 31.742Z" fill="#E5E5E5"/>
<path d="M51.7846 36.399L49.3398 38.8438L46.6177 36.1217L45.3441 37.3953L48.9558 41.007L46.2166 43.7462L39.375 36.9046L49.743 26.5366L56.4651 33.2588L53.7259 35.998L50.2315 32.5036L49.0603 33.6748L51.7825 36.3969L51.7846 36.399Z" fill="#E5E5E5"/>
<path d="M52.1527 14.8181L49.6204 17.3504L46.8834 14.6133L43.2396 18.257L40.0098 15.0272L50.3778 4.65918L57.2194 11.5008L54.3756 14.3445L50.7639 10.7328L49.4156 12.081L52.1527 14.8181Z" fill="#E5E5E5"/>
<path d="M27.2433 33.6598L27.1537 33.6001L26.4433 34.4598L20.4294 40.4737L17.4961 37.5404L27.8641 27.1724L32.2481 31.5564L28.0561 39.0956L27.4332 39.8956L27.5078 39.9702L28.3228 39.3622L35.847 35.1553L40.231 39.5393L29.863 49.9073L26.9297 46.974L32.9436 40.9601L33.8033 40.2497L33.7436 40.1601L24.8561 44.9004L22.5009 42.5452L27.2412 33.6577L27.2433 33.6598Z" fill="#E5E5E5"/>
<path d="M36.5154 48.5587L39.5511 43.7737L42.2476 41.0771L45.565 44.3945L42.8684 47.091L38.0834 50.1267L36.5132 48.5566L36.5154 48.5587ZM34.5612 48.9427L37.6567 52.0382L34.8279 54.867L31.7324 51.7715L34.5612 48.9427Z" fill="#CC3CFF"/>
<path d="M45.1274 54.5258C45.8847 55.4602 46.7146 57.2394 44.7178 59.2362C43.2756 60.6783 41.2959 61.3375 39.0815 59.1231C36.1098 56.1514 38.1642 53.873 38.7103 53.3247C40.7156 51.3194 42.4628 52.0682 43.3311 52.8575L42.0276 54.161C40.9567 53.3482 40.1759 54.0479 39.8687 54.3551C39.5615 54.6623 38.5802 55.7567 40.4639 57.6405C41.5263 58.7029 42.7743 58.9845 43.6767 58.0842C44.5791 57.1839 44.1588 56.3285 43.8047 55.8463L45.1252 54.5258H45.1274Z" fill="#CC3CFF"/>
<path d="M44.9822 53.1071C43.6296 51.6265 44.9822 50.1609 45.4323 49.7087C47.2755 47.8655 48.3635 48.8873 48.8392 49.3631L50.6824 51.2553C51.1262 51.714 51.4078 51.9636 51.6979 51.7865L51.7704 51.8591L50.4819 53.1476L49.9742 52.8489L49.9507 52.8724C50.0403 53.6041 49.6456 54.2889 49.1379 54.7967C47.8344 56.1001 46.8744 55.3855 46.5288 55.0377C45.5944 54.1033 46.1576 53.1049 46.7699 52.2367C47.5422 51.2063 47.9304 50.9481 47.5592 50.53L47.4462 50.4169C46.883 49.9007 46.3838 50.3999 46.2472 50.5385C46.0211 50.7647 45.5475 51.3364 46.1512 51.9401L44.9843 53.1071H44.9822ZM48.3891 51.3449C48.195 51.8761 48.18 51.8121 47.8003 52.3668C47.5827 52.6655 47.2115 53.2116 47.6723 53.6703C48.0584 54.0564 48.5427 53.7513 48.7752 53.5167C49.0739 53.218 49.4686 52.4223 48.6472 51.6009L48.3891 51.3428V51.3449Z" fill="#CC3CFF"/>
<path d="M51.7879 45.0002C51.7239 45.0493 51.6748 45.0962 51.6193 45.1538L51.4593 45.3138C50.7596 46.0136 50.51 46.8925 51.95 48.3325L53.6247 50.0072L52.4001 51.2317L48.3105 47.1421L49.5351 45.9176L50.2028 46.5853C49.8572 45.5954 50.2839 44.8616 50.8236 44.3218L50.9687 44.1768L51.79 44.9981L51.7879 45.0002Z" fill="#CC3CFF"/>
<path d="M58.2603 45.3694L57.7696 44.8787L57.7525 44.8958C57.7931 45.7577 57.6715 46.2654 57.1573 46.7795C56.0053 47.9315 54.3947 47.7374 53.0827 46.4254C51.7941 45.1369 51.6171 43.5262 52.784 42.3593C53.1936 41.9497 53.936 41.6105 54.5803 41.6915L52.624 39.7353L53.8485 38.5107L59.4848 44.147L58.2603 45.3715V45.3694ZM53.9445 42.8414C53.2597 43.5262 53.6629 44.4606 54.3712 45.1689C55.2331 46.0307 56.1184 46.1758 56.6987 45.5955C57.1893 45.1049 57.2939 44.275 56.2805 43.2595C55.3867 42.3657 54.5568 42.2291 53.9445 42.8414Z" fill="#CC3CFF"/>
<path d="M8.88281 22.3467V19.0763L15.6647 11.3579H19.6924V19.1958H21.4887V22.3467H19.6924V25.3184H15.4641V22.3467H8.88281ZM15.6625 19.1958V15.247L12.0721 19.1958H15.6625Z" fill="#E5E5E5"/>
<path d="M29.6676 17.5188C29.6569 16.6484 29.5993 15.729 29.3945 14.7626C29.3433 14.5236 29.3049 14.2676 29.2409 14.0351C29.1769 13.8004 29.1129 13.5636 29.0489 13.3247L28.9998 13.1455L28.987 13.1007L28.9678 13.041L28.938 12.9492C28.8974 12.8276 28.8548 12.706 28.8121 12.5823C28.7246 12.337 28.6521 12.0852 28.5476 11.8378C28.4452 11.5903 28.3406 11.3407 28.2361 11.089L28.1572 10.8991L28.0612 10.7092C27.9972 10.5834 27.931 10.4554 27.867 10.3295C27.7348 10.0756 27.6068 9.80682 27.4553 9.58709C27.3038 9.34816 27.1502 9.10709 26.9945 8.86389C26.2948 7.92096 25.4564 7.05482 24.5006 6.25696C24.266 6.07349 24.0313 5.89002 23.7945 5.70229L23.7049 5.63189L23.6836 5.61482L23.6473 5.58922L23.5982 5.55509L23.402 5.42282C23.2718 5.33536 23.1396 5.24576 23.0094 5.15616C22.762 4.97909 22.4932 4.83189 22.2244 4.68256C22.1732 4.62282 22.1113 4.57162 22.0366 4.53322L21.5033 4.26016L21.2366 4.12362L20.9636 4.00416L20.4153 3.76522L19.8542 3.55829C19.483 3.41109 19.0926 3.31722 18.7108 3.19989C18.5188 3.14869 18.3225 3.10816 18.1284 3.06336C17.9342 3.02069 17.7401 2.96949 17.5417 2.94389C17.4948 2.93536 17.4478 2.92896 17.3988 2.92042C17.13 2.86496 16.8441 2.83296 16.5668 2.79029C16.394 2.76682 16.2169 2.73696 16.0484 2.71989L15.5556 2.69216L15.0628 2.66656L14.9092 2.66016L14.779 2.66442L14.5209 2.67296L14.0025 2.69216C13.8297 2.69642 13.6548 2.70496 13.4841 2.73056C13.1385 2.77322 12.7929 2.80309 12.4452 2.86069C12.0953 2.93109 11.7433 2.99936 11.3934 3.06976C11.067 3.15936 10.7428 3.25109 10.4142 3.34069L10.3524 3.35776L10.3225 3.36629L10.2692 3.38336L10.1454 3.42816L9.89584 3.51776L9.39664 3.69909C9.31344 3.73109 9.23024 3.75882 9.14704 3.79082L8.90384 3.89962L8.41744 4.11936C8.09104 4.25376 7.77317 4.44362 7.45104 4.61856C7.29317 4.70816 7.12464 4.79349 6.97744 4.88736L6.54864 5.17109L6.11984 5.45482C6.13051 5.44629 6.07504 5.48469 6.07077 5.48896L6.04517 5.51029L5.99184 5.55296L5.88517 5.63829L5.67397 5.81109C4.53691 6.71562 3.58117 7.85269 2.76411 8.97696C1.93424 10.1183 1.17691 11.3706 0.694774 12.753C0.470774 13.4548 0.287307 14.161 0.193441 14.8714C0.125174 15.2255 0.101707 15.5839 0.0739738 15.9423L0.0313072 16.4778L0.0206405 16.9876L0.00997383 17.4975C0.00144049 17.6959 0.0206405 17.858 0.0249072 18.0394L0.0483738 18.5684L0.0611738 18.833L0.0931738 19.0954C0.14224 19.4452 0.172107 19.793 0.23824 20.1407C0.312907 20.4884 0.38544 20.8362 0.457974 21.1818C0.549707 21.5018 0.643574 21.8218 0.735307 22.1396L0.752374 22.1994L0.76944 22.2506L0.780107 22.2804L0.824907 22.402L0.914507 22.6452L1.09371 23.1274C1.14917 23.2895 1.21957 23.4452 1.29424 23.601L1.50971 24.0639C1.64197 24.3754 1.82117 24.674 1.99184 24.9727L2.24571 25.4207L2.51451 25.8218L2.78331 26.2207L2.84944 26.321L2.86651 26.3466C2.86651 26.3466 2.90277 26.3978 2.89637 26.3892L2.93477 26.4383L3.08411 26.6324C3.28677 26.8906 3.47451 27.153 3.68571 27.4004C3.89904 27.6458 4.11237 27.8911 4.32571 28.1343C4.55397 28.3732 4.79931 28.6036 5.03397 28.834L5.21104 29.0068L5.39024 29.154L5.74651 29.442C5.87237 29.5444 6.00037 29.6447 6.12624 29.7471C6.25851 29.8346 6.38864 29.922 6.51877 30.0095C6.78331 30.178 7.03077 30.3679 7.30597 30.5087C7.57691 30.658 7.84571 30.8052 8.11237 30.9524C8.39397 31.0804 8.67557 31.2063 8.95291 31.3322C9.23451 31.4687 9.49904 31.5476 9.76784 31.6479C9.90224 31.697 10.0345 31.7439 10.1668 31.7908L10.2649 31.8271L10.3118 31.842L10.3396 31.8506L10.3929 31.8655L10.6062 31.9274C10.6873 31.9508 10.7662 31.97 10.8473 31.9892C10.8409 31.9999 11.3678 32.1108 11.5876 32.1492C11.5876 32.1492 11.6558 32.162 11.6537 32.1599C11.8713 32.1983 12.0889 32.2303 12.3022 32.2538C12.8612 32.3242 13.403 32.3519 13.9364 32.3668C14.2052 32.3754 14.4654 32.3775 14.7172 32.3754H14.907L15.1076 32.3668C15.2377 32.3604 15.3657 32.354 15.4958 32.3498C15.6238 32.3412 16.1678 32.3114 16.2574 32.2986C16.3812 32.2815 16.906 32.2132 16.9956 32.2026C17.179 32.1834 17.6868 32.0703 17.7145 32.0639C17.8318 32.0383 17.9492 32.0148 18.0665 31.9892L18.2414 31.953L18.4036 31.906C18.619 31.8442 18.8302 31.7823 19.0393 31.7226L19.195 31.6778L19.2334 31.6671L19.2526 31.6607C19.291 31.65 19.274 31.6543 19.2868 31.65L19.3657 31.6202C19.4702 31.5818 19.5726 31.5434 19.675 31.505C19.8798 31.4282 20.0804 31.3535 20.2766 31.281C20.4708 31.1978 20.6564 31.106 20.842 31.0228C21.0254 30.9354 21.2089 30.8586 21.3817 30.7647C21.5545 30.6687 21.723 30.5727 21.8894 30.4788C22.0516 30.3828 22.2244 30.2975 22.3673 30.2015C22.5124 30.1034 22.6553 30.0095 22.794 29.9156C22.9369 29.8196 23.0756 29.7258 23.2121 29.634C23.3422 29.538 23.4681 29.4463 23.5918 29.3567C24.5796 28.6292 25.3092 27.9764 25.7636 27.4794C25.8766 27.3514 25.9769 27.2404 26.0644 27.1444C26.1433 27.0484 26.2073 26.9652 26.2606 26.9012C26.3652 26.769 26.4185 26.7028 26.4185 26.7028C26.5188 26.577 26.5038 26.3935 26.3822 26.2868C26.2564 26.1759 26.0644 26.1887 25.9556 26.3124C25.9556 26.3124 25.898 26.3764 25.787 26.5023C25.7316 26.5642 25.6633 26.641 25.5801 26.7327C25.4969 26.8159 25.4009 26.9119 25.2921 27.0207C25.0681 27.2362 24.778 27.4986 24.4238 27.7866C24.0654 28.0724 23.6388 28.386 23.1438 28.7231C23.0201 28.8063 22.8921 28.8916 22.7598 28.9791C22.6276 29.0602 22.4932 29.1434 22.3545 29.2287C22.2116 29.3162 22.0665 29.4058 21.9172 29.4975C21.7678 29.5914 21.6164 29.6575 21.4628 29.7428C21.3092 29.8239 21.1513 29.9071 20.9913 29.9903C20.8292 30.0714 20.6521 30.1396 20.4793 30.2164C20.3044 30.2911 20.1273 30.3722 19.9438 30.4447C19.7582 30.5087 19.5684 30.5727 19.3742 30.6367C19.2782 30.6687 19.1801 30.7028 19.0841 30.7348L19.0116 30.7604C19.0116 30.7604 19.0052 30.7604 19.003 30.7626L18.9902 30.7668L18.9518 30.7775L18.794 30.818C18.5828 30.8714 18.3694 30.9268 18.154 30.9823L17.9897 31.025L17.8318 31.0527C17.7252 31.0719 17.6185 31.0911 17.5097 31.1103C17.2921 31.1444 17.0809 31.1999 16.8526 31.217C16.3982 31.2596 15.9353 31.3258 15.4574 31.3258C15.338 31.33 15.2185 31.3343 15.0969 31.3364L14.9198 31.3428H14.73C14.474 31.3364 14.2201 31.33 13.9726 31.3194C13.4692 31.298 12.955 31.2639 12.443 31.1914C11.9289 31.1252 11.4148 31.0228 10.9134 30.8714L10.7236 30.8159L10.6489 30.7946L10.5508 30.7583C10.4185 30.7092 10.2862 30.658 10.154 30.609C9.89157 30.5066 9.60571 30.4148 9.37317 30.2911C9.12784 30.1759 8.88037 30.0586 8.63077 29.9412C8.38544 29.8026 8.14011 29.6618 7.89264 29.521C7.63877 29.3908 7.41264 29.2116 7.16944 29.0559C7.04997 28.9748 6.92837 28.8959 6.80891 28.8148L6.48037 28.546L6.12624 28.2559L5.94917 28.1087L5.79771 27.9572C5.59717 27.7524 5.39024 27.5562 5.18757 27.3428C4.99131 27.1146 4.79504 26.8863 4.59664 26.6559C4.40037 26.4234 4.22117 26.1695 4.03131 25.9263L3.89051 25.7407L3.85637 25.6938C3.85637 25.6938 3.85211 25.6895 3.85211 25.6874L3.83504 25.6639L3.76891 25.5636L3.50224 25.1626L3.23557 24.7615L3.01584 24.3626C2.86864 24.0959 2.71291 23.8378 2.59131 23.5455L2.39504 23.1188C2.32677 22.978 2.26277 22.833 2.21371 22.6836L2.13051 22.4532C2.08997 22.2911 2.04944 22.1311 2.01317 21.969L1.91504 21.3546C1.88304 21.1498 1.84677 20.945 1.81691 20.7402L1.71237 19.4964L1.82544 19.505C1.84251 19.2042 1.84677 18.897 1.87451 18.6026C1.90864 18.3103 1.92144 18.0202 1.97477 17.7279C2.01531 17.4356 2.06011 17.1434 2.12411 16.8532C2.17531 16.5631 2.24997 16.2772 2.32464 15.9914C2.39077 15.7034 2.49317 15.426 2.57424 15.1444C2.67024 14.8671 2.77051 14.5876 2.87717 14.3146C3.10117 13.7706 3.33584 13.2308 3.62171 12.7188C3.89477 12.1983 4.21264 11.7055 4.54331 11.2212C4.88891 10.7476 5.24304 10.2804 5.63984 9.85162C6.02171 9.41002 6.44411 9.00469 6.87504 8.60789C7.31664 8.22602 7.76677 7.85482 8.25104 7.52629C8.72464 7.18496 9.23024 6.89269 9.73798 6.61109C10.2521 6.33802 10.7769 6.08416 11.3188 5.87296L11.7262 5.71509L12.1401 5.57642C12.4132 5.47829 12.6969 5.40576 12.9764 5.32682C13.2558 5.24789 13.5417 5.19456 13.8254 5.12629C14.1134 5.07936 14.3972 5.01962 14.6852 4.98122C14.9732 4.94922 15.2612 4.90229 15.5513 4.88736L15.9865 4.85536C16.1316 4.84682 16.2766 4.84682 16.4217 4.84256L16.6393 4.83829H16.7481L16.7758 4.83616H16.7822L16.8356 4.83829L17.2878 4.85962L17.7401 4.88096C17.8894 4.88949 18.0473 4.88736 18.1838 4.91296L19.0286 5.02602L19.2398 5.05376L19.4532 5.10069L19.8777 5.19242C20.4516 5.29269 20.9977 5.49536 21.5566 5.65536L21.6036 5.66816C21.6292 5.67669 21.6569 5.67882 21.6825 5.68309C21.93 5.81749 22.1796 5.94976 22.4057 6.11189L22.7705 6.35082L22.9518 6.47029L22.9966 6.50016C23.0158 6.51296 22.9966 6.49802 23.0052 6.50656L23.0286 6.52362L23.1182 6.59189C23.3572 6.77322 23.5961 6.95456 23.8329 7.13376C24.7118 7.84842 25.5012 8.63989 26.1497 9.48256C26.3012 9.70656 26.4505 9.93056 26.5977 10.1524C26.7641 10.3807 26.8708 10.6047 26.9924 10.8287C27.0521 10.9396 27.1118 11.0506 27.1737 11.1615L27.2633 11.3279L27.3422 11.5028C27.4468 11.7375 27.5492 11.97 27.6516 12.1983C27.7561 12.4266 27.8308 12.6676 27.9204 12.898C27.963 13.0132 28.0057 13.1284 28.0484 13.2436L28.0804 13.329L28.0889 13.3503C28.0953 13.3695 28.0889 13.346 28.091 13.3567L28.1038 13.4015L28.1593 13.5807C28.234 13.8175 28.3044 14.0522 28.3769 14.2826C28.4494 14.5151 28.4878 14.7327 28.5433 14.9546C28.7652 15.8335 28.8505 16.7103 28.891 17.521C28.8932 17.5679 28.8996 17.634 28.8996 17.6618V17.8175C28.8953 17.922 28.8953 18.0244 28.8932 18.1247C28.8889 18.3274 28.8932 18.5322 28.8804 18.722C28.8654 18.9119 28.8505 19.0975 28.8356 19.2788C28.8206 19.4602 28.8121 19.6394 28.7801 19.8164C28.6948 20.5204 28.5625 21.169 28.4089 21.7279C28.3214 22.0159 28.2446 22.2954 28.1593 22.5471C28.0676 22.7924 27.9801 23.0207 27.899 23.2362C27.8265 23.4516 27.722 23.6415 27.6452 23.8207C27.5641 23.9999 27.4916 24.162 27.4254 24.3071C27.1246 24.8703 26.9625 25.1711 26.9625 25.1711L26.9561 25.1839C26.9092 25.2714 26.939 25.3802 27.0222 25.4335C27.1118 25.489 27.227 25.4612 27.2825 25.3738C27.2825 25.3738 27.4681 25.0772 27.8158 24.5183C27.9673 24.226 28.1721 23.8762 28.3705 23.4367C28.4686 23.2148 28.571 22.978 28.682 22.722C28.7822 22.4682 28.8718 22.1972 28.9742 21.9135C29.1726 21.314 29.3433 20.657 29.4713 19.9167C29.5118 19.7354 29.5289 19.5412 29.5502 19.3471C29.5716 19.1508 29.595 18.9524 29.6185 18.7498C29.6377 18.5492 29.642 18.3508 29.6526 18.146C29.6569 18.0436 29.6633 17.9412 29.6676 17.8388L29.6761 17.6831C29.6804 17.6063 29.6761 17.57 29.6761 17.5103L29.6676 17.5188ZM12.6542 4.20469C12.3534 4.29216 12.0484 4.37322 11.754 4.47989L11.3081 4.63349L10.8708 4.80842C10.2862 5.03882 9.72304 5.31829 9.17051 5.61696C8.62651 5.93056 8.09317 6.25909 7.58971 6.63456C7.07984 6.99936 6.60411 7.40682 6.13904 7.82709C5.68677 8.26016 5.24517 8.70389 4.84624 9.18602C4.43877 9.66176 4.07611 10.1716 3.72837 10.6879C3.39557 11.2148 3.07557 11.7503 2.80464 12.3135C2.52091 12.8682 2.28837 13.4463 2.07717 14.0308C1.97691 14.3252 1.88517 14.6218 1.79557 14.9183C1.72091 15.2191 1.62704 15.5156 1.57157 15.8207C1.50757 16.1236 1.44357 16.4266 1.40091 16.7338C1.34757 17.0388 1.31344 17.346 1.28357 17.6554C1.26651 17.7876 1.25584 17.922 1.24944 18.0564V18.0138C1.24517 17.8559 1.22597 17.681 1.23664 17.538L1.24944 17.0282L1.26437 16.5183L1.30704 16.034C1.33477 15.7119 1.35611 15.3876 1.42224 15.0676C1.44144 14.9268 1.46704 14.786 1.49264 14.6474C1.58011 14.2719 1.68251 13.8986 1.79984 13.5295C2.01317 12.881 2.27557 12.2516 2.57637 11.6415C2.93264 10.9866 3.35077 10.3508 3.79664 9.73002L3.86917 9.62762L3.93744 9.53802L4.09531 9.33109L4.40891 8.91936C4.51344 8.77642 4.62011 8.65269 4.72677 8.53109L5.04677 8.15989C5.08304 8.11509 5.12144 8.07029 5.16197 8.02762C5.18331 8.00629 5.20464 7.98282 5.22597 7.96149C7.31451 5.90709 10.0537 4.52256 12.9529 4.12149L13.0318 4.11082C12.906 4.14069 12.7801 4.17056 12.6564 4.20682L12.6542 4.20469Z" fill="#E5E5E5"/>
</g>
<defs>
<clipPath id="clip0_8395_3419">
<rect width="64" height="64" fill="white"/>
</clipPath>
</defs>
</svg>
