<svg width="64" height="64" viewBox="0 0 64 64" fill="none" xmlns="http://www.w3.org/2000/svg">
<g clip-path="url(#clip0_8395_3402)">
<path d="M49.9624 24.3712L46.6152 21.024L60.819 14.4917L64.004 17.6768L57.4718 31.8805L54.1246 28.5333L55.1166 26.592L51.9016 23.377L49.9603 24.369L49.9624 24.3712ZM56.612 23.825L58.7454 19.7376L54.6728 21.8858L56.6142 23.8272L56.612 23.825Z" fill="#E5E5E5"/>
<path d="M43.687 31.1341C42.5926 32.4397 41.0992 33.2589 39.8278 33.4701C37.5643 33.8541 35.5078 32.5165 34.4112 31.7485C33.176 30.8845 31.5099 29.5384 31.0491 27.3474C30.7611 25.9693 30.951 23.7997 32.7152 21.2781C34.3003 19.0125 36.1435 17.9522 37.8992 17.6728C40.2096 17.2952 42.0934 18.2573 43.5184 19.2536C45.4918 20.636 46.4518 22.1506 46.7014 23.6546C46.7483 23.917 47.0256 25.7474 45.8566 27.8189L42.2363 25.2845C42.4795 24.7896 42.5328 24.2392 42.4262 23.8061C42.2555 23.1746 41.7115 22.7437 41.4043 22.5282C40.839 22.1314 40.1648 21.8136 39.32 21.9629C38.1531 22.1677 37.287 23.2237 36.7707 23.9618C36.2544 24.7 35.6358 25.8008 35.7339 26.8674C35.8214 27.8744 36.4038 28.3586 36.9179 28.7192C37.432 29.0797 37.9611 29.3464 38.6843 29.2653C39.3776 29.1885 39.8214 28.8088 40.0368 28.5762L43.6912 31.1362L43.687 31.1341Z" fill="#E5E5E5"/>
<path d="M51.7846 35.7911L49.3398 38.2359L46.6177 35.5138L45.3441 36.7874L48.9558 40.3991L46.2166 43.1383L39.375 36.2967L49.743 25.9287L56.4651 32.6508L53.7259 35.39L50.2315 31.8956L49.0603 33.0668L51.7825 35.789L51.7846 35.7911Z" fill="#E5E5E5"/>
<path d="M52.1527 14.2102L49.6204 16.7425L46.8834 14.0054L43.2396 17.6491L40.0098 14.4193L50.3778 4.05127L57.2194 10.8929L54.3756 13.7366L50.7639 10.1249L49.4156 11.4731L52.1527 14.2102Z" fill="#E5E5E5"/>
<path d="M27.2433 33.0495L27.1537 32.9897L26.4433 33.8495L20.4294 39.8633L17.4961 36.93L27.8641 26.562L32.2481 30.946L28.0561 38.4852L27.4332 39.2852L27.5078 39.3599L28.3228 38.7519L35.847 34.5449L40.231 38.9289L29.863 49.2969L26.9297 46.3636L32.9436 40.3497L33.8033 39.6393L33.7436 39.5497L24.8561 44.29L22.5009 41.9348L27.2412 33.0473L27.2433 33.0495Z" fill="#E5E5E5"/>
<path d="M36.5154 47.9508L39.5511 43.1658L42.2476 40.4692L45.565 43.7866L42.8684 46.4831L38.0834 49.5188L36.5132 47.9487L36.5154 47.9508ZM34.5612 48.3348L37.6567 51.4303L34.8279 54.2591L31.7324 51.1636L34.5612 48.3348Z" fill="#CC3CFF"/>
<path d="M45.1274 53.9155C45.8847 54.8499 46.7146 56.6291 44.7178 58.6259C43.2756 60.068 41.2959 60.7272 39.0815 58.5128C36.1098 55.5411 38.1642 53.2627 38.7103 52.7144C40.7156 50.7091 42.4628 51.4579 43.3311 52.2472L42.0276 53.5507C40.9567 52.7379 40.1759 53.4376 39.8687 53.7448C39.5615 54.052 38.5802 55.1464 40.4639 57.0301C41.5263 58.0925 42.7743 58.3741 43.6767 57.4739C44.5791 56.5736 44.1588 55.7181 43.8047 55.236L45.1252 53.9155H45.1274Z" fill="#CC3CFF"/>
<path d="M44.9822 52.4992C43.6296 51.0186 44.9822 49.553 45.4323 49.1008C47.2755 47.2576 48.3635 48.2794 48.8392 48.7552L50.6824 50.6474C51.1262 51.1061 51.4078 51.3557 51.6979 51.1786L51.7704 51.2512L50.4819 52.5397L49.9742 52.241L49.9507 52.2645C50.0403 52.9962 49.6456 53.681 49.1379 54.1888C47.8344 55.4922 46.8744 54.7776 46.5288 54.4298C45.5944 53.4954 46.1576 52.497 46.7699 51.6288C47.5422 50.5984 47.9304 50.3402 47.5592 49.9221L47.4462 49.809C46.883 49.2928 46.3838 49.792 46.2472 49.9306C46.0211 50.1568 45.5475 50.7285 46.1512 51.3322L44.9843 52.4992H44.9822ZM48.3891 50.737C48.195 51.2682 48.18 51.2042 47.8003 51.7589C47.5827 52.0576 47.2115 52.6037 47.6723 53.0624C48.0584 53.4485 48.5427 53.1434 48.7752 52.9088C49.0739 52.6101 49.4686 51.8144 48.6472 50.993L48.3891 50.7349V50.737Z" fill="#CC3CFF"/>
<path d="M51.7879 44.3904C51.7239 44.4394 51.6748 44.4864 51.6193 44.544L51.4593 44.704C50.7596 45.4037 50.51 46.2826 51.95 47.7226L53.6247 49.3973L52.4001 50.6218L48.3105 46.5322L49.5351 45.3077L50.2028 45.9754C49.8572 44.9856 50.2839 44.2517 50.8236 43.712L50.9687 43.5669L51.79 44.3882L51.7879 44.3904Z" fill="#CC3CFF"/>
<path d="M58.2603 44.7615L57.7696 44.2708L57.7525 44.2879C57.7931 45.1498 57.6715 45.6575 57.1573 46.1716C56.0053 47.3236 54.3947 47.1295 53.0827 45.8175C51.7941 44.529 51.6171 42.9183 52.784 41.7514C53.1936 41.3418 53.936 41.0026 54.5803 41.0836L52.624 39.1274L53.8485 37.9028L59.4848 43.5391L58.2603 44.7636V44.7615ZM53.9445 42.2335C53.2597 42.9183 53.6629 43.8527 54.3712 44.561C55.2331 45.4228 56.1184 45.5679 56.6987 44.9876C57.1893 44.497 57.2939 43.6671 56.2805 42.6516C55.3867 41.7578 54.5568 41.6212 53.9445 42.2335Z" fill="#CC3CFF"/>
<path d="M10.7168 13.2225H10.9557C11.8325 13.2225 12.7499 13.0433 13.3899 12.7041C14.4267 12.1665 14.7851 11.3089 14.9451 10.75H18.3563V24.7105H13.9296V15.4156H10.7189V13.2225H10.7168Z" fill="#E5E5E5"/>
<path d="M29.6676 16.9109C29.6569 16.0405 29.5993 15.121 29.3945 14.1546C29.3433 13.9157 29.3049 13.6597 29.2409 13.4272C29.1769 13.1925 29.1129 12.9557 29.0489 12.7168L28.9998 12.5376L28.987 12.4928L28.9678 12.433L28.938 12.3413C28.8974 12.2197 28.8548 12.0981 28.8121 11.9744C28.7246 11.729 28.6521 11.4773 28.5476 11.2298C28.4452 10.9824 28.3406 10.7328 28.2361 10.481L28.1572 10.2912L28.0612 10.1013C27.9972 9.97545 27.931 9.84745 27.867 9.72158C27.7348 9.46771 27.6068 9.19891 27.4553 8.97918C27.3038 8.74025 27.1502 8.49918 26.9945 8.25598C26.2948 7.31305 25.4564 6.44691 24.5006 5.64905C24.266 5.46558 24.0313 5.28211 23.7945 5.09438L23.7049 5.02398L23.6836 5.00691L23.6473 4.98131L23.5982 4.94718L23.402 4.81491C23.2718 4.72745 23.1396 4.63785 23.0094 4.54825C22.762 4.37118 22.4932 4.22398 22.2244 4.07465C22.1732 4.01491 22.1113 3.96371 22.0366 3.92531L21.5033 3.65225L21.2366 3.51571L20.9636 3.39625L20.4153 3.15731L19.8542 2.95038C19.483 2.80318 19.0926 2.70931 18.7108 2.59198C18.5188 2.54078 18.3225 2.50025 18.1284 2.45545C17.9342 2.41278 17.7401 2.36158 17.5417 2.33598C17.4948 2.32745 17.4478 2.32105 17.3988 2.31251C17.13 2.25705 16.8441 2.22505 16.5668 2.18238C16.394 2.15891 16.2169 2.12905 16.0484 2.11198L15.5556 2.08425L15.0628 2.05865L14.9092 2.05225L14.779 2.05651L14.5209 2.06505L14.0025 2.08425C13.8297 2.08851 13.6548 2.09705 13.4841 2.12265C13.1385 2.16531 12.7929 2.19518 12.4452 2.25278C12.0953 2.32318 11.7433 2.39145 11.3934 2.46185C11.067 2.55145 10.7428 2.64318 10.4142 2.73278L10.3524 2.74985L10.3225 2.75838L10.2692 2.77545L10.1454 2.82025L9.89584 2.90985L9.39664 3.09118C9.31344 3.12318 9.23024 3.15091 9.14704 3.18291L8.90384 3.29171L8.41744 3.51145C8.09104 3.64585 7.77317 3.83571 7.45104 4.01065C7.29317 4.10025 7.12464 4.18558 6.97744 4.27945L6.54864 4.56318L6.11984 4.84691C6.13051 4.83838 6.07504 4.87678 6.07077 4.88105L6.04517 4.90238L5.99184 4.94505L5.88517 5.03038L5.67397 5.20318C4.53691 6.10771 3.58117 7.24478 2.76411 8.36905C1.93424 9.51038 1.17691 10.7626 0.694774 12.145C0.470774 12.8469 0.287307 13.553 0.193441 14.2634C0.125174 14.6176 0.101707 14.976 0.0739738 15.3344L0.0313072 15.8698L0.0206405 16.3797L0.00997383 16.8896C0.00144049 17.088 0.0206405 17.2501 0.0249072 17.4314L0.0483738 17.9605L0.0611738 18.225L0.0931738 18.4874C0.14224 18.8373 0.172107 19.185 0.23824 19.5328C0.312907 19.8805 0.38544 20.2282 0.457974 20.5738C0.549707 20.8938 0.643574 21.2138 0.735307 21.5317L0.752374 21.5914L0.76944 21.6426L0.780107 21.6725L0.824907 21.7941L0.914507 22.0373L1.09371 22.5194C1.14917 22.6816 1.21957 22.8373 1.29424 22.993L1.50971 23.456C1.64197 23.7674 1.82117 24.0661 1.99184 24.3648L2.24571 24.8128L2.51451 25.2138L2.78331 25.6128L2.84944 25.713L2.86651 25.7386C2.86651 25.7386 2.90277 25.7898 2.89637 25.7813L2.93477 25.8304L3.08411 26.0245C3.28677 26.2826 3.47451 26.545 3.68571 26.7925C3.89904 27.0378 4.11237 27.2832 4.32571 27.5264C4.55397 27.7653 4.79931 27.9957 5.03397 28.2261L5.21104 28.3989L5.39024 28.5461L5.74651 28.8341C5.87237 28.9365 6.00037 29.0368 6.12624 29.1392C6.25851 29.2266 6.38864 29.3141 6.51877 29.4016C6.78331 29.5701 7.03077 29.76 7.30597 29.9008C7.57691 30.0501 7.84571 30.1973 8.11237 30.3445C8.39397 30.4725 8.67557 30.5984 8.95291 30.7242C9.23451 30.8608 9.49904 30.9397 9.76784 31.04C9.90224 31.089 10.0345 31.136 10.1668 31.1829L10.2649 31.2192L10.3118 31.2341L10.3396 31.2426L10.3929 31.2576L10.6062 31.3194C10.6873 31.3429 10.7662 31.3621 10.8473 31.3813C10.8409 31.392 11.3678 31.5029 11.5876 31.5413C11.5876 31.5413 11.6558 31.5541 11.6537 31.552C11.8713 31.5904 12.0889 31.6224 12.3022 31.6458C12.8612 31.7162 13.403 31.744 13.9364 31.7589C14.2052 31.7674 14.4654 31.7696 14.7172 31.7674H14.907L15.1076 31.7589C15.2377 31.7525 15.3657 31.7461 15.4958 31.7418C15.6238 31.7333 16.1678 31.7034 16.2574 31.6906C16.3812 31.6736 16.906 31.6053 16.9956 31.5946C17.179 31.5754 17.6868 31.4624 17.7145 31.456C17.8318 31.4304 17.9492 31.4069 18.0665 31.3813L18.2414 31.345L18.4036 31.2981C18.619 31.2362 18.8302 31.1744 19.0393 31.1146L19.195 31.0698L19.2334 31.0592L19.2526 31.0528C19.291 31.0421 19.274 31.0464 19.2868 31.0421L19.3657 31.0122C19.4702 30.9738 19.5726 30.9354 19.675 30.897C19.8798 30.8202 20.0804 30.7456 20.2766 30.673C20.4708 30.5898 20.6564 30.4981 20.842 30.4149C21.0254 30.3274 21.2089 30.2506 21.3817 30.1568C21.5545 30.0608 21.723 29.9648 21.8894 29.8709C22.0516 29.7749 22.2244 29.6896 22.3673 29.5936C22.5124 29.4954 22.6553 29.4016 22.794 29.3077C22.9369 29.2117 23.0756 29.1178 23.2121 29.0261C23.3422 28.9301 23.4681 28.8384 23.5918 28.7488C24.5796 28.0213 25.3092 27.3685 25.7636 26.8714C25.8766 26.7434 25.9769 26.6325 26.0644 26.5365C26.1433 26.4405 26.2073 26.3573 26.2606 26.2933C26.3652 26.161 26.4185 26.0949 26.4185 26.0949C26.5188 25.969 26.5038 25.7856 26.3822 25.6789C26.2564 25.568 26.0644 25.5808 25.9556 25.7045C25.9556 25.7045 25.898 25.7685 25.787 25.8944C25.7316 25.9562 25.6633 26.033 25.5801 26.1248C25.4969 26.208 25.4009 26.304 25.2921 26.4128C25.0681 26.6282 24.778 26.8906 24.4238 27.1786C24.0654 27.4645 23.6388 27.7781 23.1438 28.1152C23.0201 28.1984 22.8921 28.2837 22.7598 28.3712C22.6276 28.4522 22.4932 28.5354 22.3545 28.6208C22.2116 28.7082 22.0665 28.7978 21.9172 28.8896C21.7678 28.9834 21.6164 29.0496 21.4628 29.1349C21.3092 29.216 21.1513 29.2992 20.9913 29.3824C20.8292 29.4634 20.6521 29.5317 20.4793 29.6085C20.3044 29.6832 20.1273 29.7642 19.9438 29.8368C19.7582 29.9008 19.5684 29.9648 19.3742 30.0288C19.2782 30.0608 19.1801 30.0949 19.0841 30.1269L19.0116 30.1525C19.0116 30.1525 19.0052 30.1525 19.003 30.1546L18.9902 30.1589L18.9518 30.1696L18.794 30.2101C18.5828 30.2634 18.3694 30.3189 18.154 30.3744L17.9897 30.417L17.8318 30.4448C17.7252 30.464 17.6185 30.4832 17.5097 30.5024C17.2921 30.5365 17.0809 30.592 16.8526 30.609C16.3982 30.6517 15.9353 30.7178 15.4574 30.7178C15.338 30.7221 15.2185 30.7264 15.0969 30.7285L14.9198 30.7349H14.73C14.474 30.7285 14.2201 30.7221 13.9726 30.7114C13.4692 30.6901 12.955 30.656 12.443 30.5834C11.9289 30.5173 11.4148 30.4149 10.9134 30.2634L10.7236 30.208L10.6489 30.1866L10.5508 30.1504C10.4185 30.1013 10.2862 30.0501 10.154 30.001C9.89157 29.8986 9.60571 29.8069 9.37317 29.6832C9.12784 29.568 8.88037 29.4506 8.63077 29.3333C8.38544 29.1946 8.14011 29.0538 7.89264 28.913C7.63877 28.7829 7.41264 28.6037 7.16944 28.448C7.04997 28.3669 6.92837 28.288 6.80891 28.2069L6.48037 27.9381L6.12624 27.648L5.94917 27.5008L5.79771 27.3493C5.59717 27.1445 5.39024 26.9482 5.18757 26.7349C4.99131 26.5066 4.79504 26.2784 4.59664 26.048C4.40037 25.8154 4.22117 25.5616 4.03131 25.3184L3.89051 25.1328L3.85637 25.0858C3.85637 25.0858 3.85211 25.0816 3.85211 25.0794L3.83504 25.056L3.76891 24.9557L3.50224 24.5546L3.23557 24.1536L3.01584 23.7546C2.86864 23.488 2.71291 23.2298 2.59131 22.9376L2.39504 22.5109C2.32677 22.3701 2.26277 22.225 2.21371 22.0757L2.13051 21.8453C2.08997 21.6832 2.04944 21.5232 2.01317 21.361L1.91504 20.7466C1.88304 20.5418 1.84677 20.337 1.81691 20.1322L1.71237 18.8885L1.82544 18.897C1.84251 18.5962 1.84677 18.289 1.87451 17.9946C1.90864 17.7024 1.92144 17.4122 1.97477 17.12C2.01531 16.8277 2.06011 16.5354 2.12411 16.2453C2.17531 15.9552 2.24997 15.6693 2.32464 15.3834C2.39077 15.0954 2.49317 14.8181 2.57424 14.5365C2.67024 14.2592 2.77051 13.9797 2.87717 13.7066C3.10117 13.1626 3.33584 12.6229 3.62171 12.1109C3.89477 11.5904 4.21264 11.0976 4.54331 10.6133C4.88891 10.1397 5.24304 9.67251 5.63984 9.24371C6.02171 8.80211 6.44411 8.39678 6.87504 7.99998C7.31664 7.61811 7.76677 7.24691 8.25104 6.91838C8.72464 6.57705 9.23024 6.28478 9.73798 6.00318C10.2521 5.73011 10.7769 5.47625 11.3188 5.26505L11.7262 5.10718L12.1401 4.96851C12.4132 4.87038 12.6969 4.79785 12.9764 4.71891C13.2558 4.63998 13.5417 4.58665 13.8254 4.51838C14.1134 4.47145 14.3972 4.41171 14.6852 4.37331C14.9732 4.34131 15.2612 4.29438 15.5513 4.27945L15.9865 4.24745C16.1316 4.23891 16.2766 4.23891 16.4217 4.23465L16.6393 4.23038H16.7481L16.7758 4.22825H16.7822L16.8356 4.23038L17.2878 4.25171L17.7401 4.27305C17.8894 4.28158 18.0473 4.27945 18.1838 4.30505L19.0286 4.41811L19.2398 4.44585L19.4532 4.49278L19.8777 4.58451C20.4516 4.68478 20.9977 4.88745 21.5566 5.04745L21.6036 5.06025C21.6292 5.06878 21.6569 5.07091 21.6825 5.07518C21.93 5.20958 22.1796 5.34185 22.4057 5.50398L22.7705 5.74291L22.9518 5.86238L22.9966 5.89225C23.0158 5.90505 22.9966 5.89011 23.0052 5.89865L23.0286 5.91571L23.1182 5.98398C23.3572 6.16531 23.5961 6.34665 23.8329 6.52585C24.7118 7.24051 25.5012 8.03198 26.1497 8.87465C26.3012 9.09865 26.4505 9.32265 26.5977 9.54451C26.7641 9.77278 26.8708 9.99678 26.9924 10.2208C27.0521 10.3317 27.1118 10.4426 27.1737 10.5536L27.2633 10.72L27.3422 10.8949C27.4468 11.1296 27.5492 11.3621 27.6516 11.5904C27.7561 11.8186 27.8308 12.0597 27.9204 12.2901C27.963 12.4053 28.0057 12.5205 28.0484 12.6357L28.0804 12.721L28.0889 12.7424C28.0953 12.7616 28.0889 12.7381 28.091 12.7488L28.1038 12.7936L28.1593 12.9728C28.234 13.2096 28.3044 13.4442 28.3769 13.6746C28.4494 13.9072 28.4878 14.1248 28.5433 14.3466C28.7652 15.2256 28.8505 16.1024 28.891 16.913C28.8932 16.96 28.8996 17.0261 28.8996 17.0538V17.2096C28.8953 17.3141 28.8953 17.4165 28.8932 17.5168C28.8889 17.7194 28.8932 17.9242 28.8804 18.1141C28.8654 18.304 28.8505 18.4896 28.8356 18.6709C28.8206 18.8522 28.8121 19.0314 28.7801 19.2085C28.6948 19.9125 28.5625 20.561 28.4089 21.12C28.3214 21.408 28.2446 21.6874 28.1593 21.9392C28.0676 22.1845 27.9801 22.4128 27.899 22.6282C27.8265 22.8437 27.722 23.0336 27.6452 23.2128C27.5641 23.392 27.4916 23.5541 27.4254 23.6992C27.1246 24.2624 26.9625 24.5632 26.9625 24.5632L26.9561 24.576C26.9092 24.6634 26.939 24.7722 27.0222 24.8256C27.1118 24.881 27.227 24.8533 27.2825 24.7658C27.2825 24.7658 27.4681 24.4693 27.8158 23.9104C27.9673 23.6181 28.1721 23.2682 28.3705 22.8288C28.4686 22.6069 28.571 22.3701 28.682 22.1141C28.7822 21.8602 28.8718 21.5893 28.9742 21.3056C29.1726 20.7061 29.3433 20.049 29.4713 19.3088C29.5118 19.1274 29.5289 18.9333 29.5502 18.7392C29.5716 18.5429 29.595 18.3445 29.6185 18.1418C29.6377 17.9413 29.642 17.7429 29.6526 17.5381C29.6569 17.4357 29.6633 17.3333 29.6676 17.2309L29.6761 17.0752C29.6804 16.9984 29.6761 16.9621 29.6761 16.9024L29.6676 16.9109ZM12.6542 3.59678C12.3534 3.68425 12.0484 3.76531 11.754 3.87198L11.3081 4.02558L10.8708 4.20051C10.2862 4.43091 9.72304 4.71038 9.17051 5.00905C8.62651 5.32265 8.09317 5.65118 7.58971 6.02665C7.07984 6.39145 6.60411 6.79891 6.13904 7.21918C5.68677 7.65225 5.24517 8.09598 4.84624 8.57811C4.43877 9.05385 4.07611 9.56371 3.72837 10.08C3.39557 10.6069 3.07557 11.1424 2.80464 11.7056C2.52091 12.2602 2.28837 12.8384 2.07717 13.4229C1.97691 13.7173 1.88517 14.0138 1.79557 14.3104C1.72091 14.6112 1.62704 14.9077 1.57157 15.2128C1.50757 15.5157 1.44357 15.8186 1.40091 16.1258C1.34757 16.4309 1.31344 16.7381 1.28357 17.0474C1.26651 17.1797 1.25584 17.3141 1.24944 17.4485V17.4058C1.24517 17.248 1.22597 17.073 1.23664 16.9301L1.24944 16.4202L1.26437 15.9104L1.30704 15.4261C1.33477 15.104 1.35611 14.7797 1.42224 14.4597C1.44144 14.3189 1.46704 14.1781 1.49264 14.0394C1.58011 13.664 1.68251 13.2906 1.79984 12.9216C2.01317 12.273 2.27557 11.6437 2.57637 11.0336C2.93264 10.3786 3.35077 9.74291 3.79664 9.12211L3.86917 9.01971L3.93744 8.93011L4.09531 8.72318L4.40891 8.31145C4.51344 8.16851 4.62011 8.04478 4.72677 7.92318L5.04677 7.55198C5.08304 7.50718 5.12144 7.46238 5.16197 7.41971C5.18331 7.39838 5.20464 7.37491 5.22597 7.35358C7.31451 5.29918 10.0537 3.91465 12.9529 3.51358L13.0318 3.50291C12.906 3.53278 12.7801 3.56265 12.6564 3.59891L12.6542 3.59678Z" fill="#E5E5E5"/>
</g>
<defs>
<clipPath id="clip0_8395_3402">
<rect width="64" height="64" fill="white"/>
</clipPath>
</defs>
</svg>
